/* XPM */
static char *result[] = {
/* columns rows colors chars-per-pixel */
"64 64 194 2 ",
"   c white",
".  c #FEFFFF",
"X  c #FEFEFE",
"o  c #F1F1F0",
"O  c #DDDEDE",
"+  c gray83",
"@  c #D2D2D2",
"#  c #D2D3D2",
"$  c #D3D2D3",
"%  c #D3D2D2",
"&  c #D2D2D3",
"*  c LightGray",
"=  c #E4E4E4",
"-  c #FBFBFB",
";  c gray99",
":  c #BCBBBB",
">  c gray38",
",  c gray21",
"<  c #2C2C2C",
"1  c #2D2D2D",
"2  c #2D2C2D",
"3  c #2D2D2C",
"4  c #2C2D2D",
"5  c #2D2C2C",
"6  c gray19",
"7  c gray51",
"8  c #EDEEEE",
"9  c #ACACAC",
"0  c #3E3E3E",
"q  c #090A0A",
"w  c black",
"e  c #020202",
"r  c gray40",
"t  c #EAEAEA",
"y  c gray68",
"u  c gray25",
"i  c #0C0C0C",
"p  c #0B0B0C",
"a  c #090909",
"s  c gray10",
"d  c gray15",
"f  c #272727",
"g  c #2A2A2A",
"h  c #7E7E7E",
"j  c gray93",
"k  c #0C0B0C",
"l  c gray3",
"z  c gray49",
"x  c gray73",
"c  c #BFBEBF",
"v  c #BFBFBE",
"b  c gray",
"n  c #BEBFBE",
"m  c #BFBEBE",
"M  c #BEBEBF",
"N  c gray75",
"B  c gray85",
"V  c gray98",
"C  c #0B0C0B",
"Z  c gray4",
"A  c #3C3B3B",
"S  c gray65",
"D  c #F6F6F6",
"F  c #FBFCFC",
"G  c #FBFBFC",
"H  c #FCFBFB",
"J  c #FCFCFB",
"K  c #FBFCFB",
"L  c #FDFDFD",
"P  c #FFFFFE",
"I  c #0A0B0A",
"U  c #3C3C3C",
"Y  c gray66",
"T  c #0A0A0B",
"R  c #FAF9FA",
"E  c #F8F8F8",
"W  c #0C0C0B",
"Q  c gray87",
"!  c #0B0C0C",
"~  c #3D3C3C",
"^  c gray84",
"/  c #FAFAF9",
"(  c #D6D6D7",
")  c #0B0B0B",
"_  c #A8A9A9",
"`  c #D6D7D7",
"'  c #0C0B0B",
"]  c gray22",
"[  c gray62",
"{  c gray92",
"}  c gray94",
"|  c #EFF0F0",
" . c #F0EFF0",
".. c #F0EFEF",
"X. c #EFF0EF",
"o. c #F0F0EF",
"O. c #F2F3F2",
"+. c #060606",
"@. c #232323",
"#. c #626262",
"$. c #929291",
"%. c #959595",
"&. c #959495",
"*. c #949595",
"=. c #959594",
"-. c #979797",
";. c #DBDBDC",
":. c #D7D7D7",
">. c #010101",
",. c #070607",
"<. c gray7",
"1. c #1B1B1B",
"2. c gray13",
"3. c #464646",
"4. c #B3B3B4",
"5. c #040405",
"6. c gray18",
"7. c #AAAAAA",
"8. c #DEDEDD",
"9. c #000101",
"0. c #0A0A09",
"q. c #0A090A",
"w. c #101010",
"e. c #383737",
"r. c #AEAEAE",
"t. c #040303",
"y. c #141514",
"u. c #393939",
"i. c gray33",
"p. c #575657",
"a. c #565656",
"s. c #565756",
"d. c #575656",
"f. c #565657",
"g. c #5B5A5B",
"h. c gray46",
"j. c #C8C8C7",
"k. c #353434",
"l. c #929292",
"z. c #DFDEDF",
"x. c #DFDFDF",
"c. c #F4F4F4",
"v. c gray24",
"b. c #A9A9A9",
"n. c #3D3D3C",
"m. c #363635",
"M. c gray59",
"N. c #E5E4E5",
"B. c #E7E7E7",
"V. c #EEEEEE",
"C. c #040404",
"Z. c #191919",
"A. c DimGray",
"S. c gray42",
"D. c #6C6B6C",
"F. c #7A7979",
"G. c gray64",
"H. c gray6",
"J. c #0F0F10",
"K. c #10100F",
"L. c #100F0F",
"P. c #100F10",
"I. c #0F100F",
"U. c #101011",
"Y. c #6A6A6A",
"T. c #D8D8D9",
"R. c #ADACAD",
"E. c #3F3F3F",
"W. c #0B0A0A",
"Q. c gray9",
"!. c #5F5F5F",
"~. c #D6D5D5",
"^. c #B4B4B4",
"/. c #505050",
"(. c #202020",
"). c #151515",
"_. c #151615",
"`. c #161515",
"'. c #161615",
"]. c #161516",
"[. c #151516",
"{. c #161616",
"}. c gray43",
"|. c #A0A0A0",
" X c #868686",
".X c #80807F",
"XX c #808080",
"oX c gray55",
"OX c gray69",
"+X c #EAEBEA",
"@X c #EFEFEF",
"#X c #EAEAE9",
"$X c #ECECEC",
"%X c gray95",
/* pixels */
"                                                              .                                           .                     ",
"                                                                                                                                ",
"                                                                                                                                ",
"                                                                                                                                ",
"                                                                                                                                ",
"                                                                                                                                ",
"                                                                                                                                ",
"                                                                                                                                ",
"                                                                                                                                ",
"                                                                                                                                ",
"                                                                                                                                ",
"                                                                                                                                ",
"                                                                                                                                ",
"                        X o O + @ @ # @ @ # @ $ @ @ @ @ @ @ @ % @ @ @ @ # @ @ @ # @ @ # & % * = -                               ",
"                        ; : > , < 1 1 1 1 1 2 1 1 1 1 1 3 4 2 1 1 1 1 1 1 1 1 1 1 1 1 2 2 5 6 7 8                               ",
"                        - 9 0 q w w w w w w w w w w w w w w w w w w w w w w w w w w w w w w e r t                               ",
"                        - y u i w w w w w w w w w w w w w w w w w w w w w w w w w w w w w w e r t                               ",
"                        - y u p w w e a s d f f f f f f f f f f f f f f f f f f f f f f f f g h j                               ",
"                        - y u k w w l 1 z x c v b b b b b b n m b m b b M b b b b n b b b n N B V                               ",
"                        - y u C w w Z A S D ; F - - - - - G F H - - - - H J - - - - K - - G K L P                               ",
"                        - y u p w w I U Y V                                                                                     ",
"                        - y u C w w T U Y V                                                                                     ",
"                        - y u C w w Z U Y R                                                                                     ",
"E                       - y u W w w Z U Y V                                                                                     ",
"Q                       - y u ! w w I ~ Y R                                                                                     ",
"^                       - y u p w w T U Y /                                                                                     ",
"(                       - y u ) w w Z ~ _ V                                                                                     ",
"`                       - y u ' w w Z ] [ { } } |  .} } ..| .... ...} | X. .o.o.} o.} } } O.V                                   ",
"`                       - y u k w w +.@.#.$.%.&.%.%.%.%.*.%.&.%.%.=.&.%.%.%.%.%.&.%.%.%.-.Y ;.X                                 ",
":.                      - y u i w w >.,.<.1.1.1.1.1.1.1.1.1.1.1.1.1.1.1.1.1.1.1.1.1.1.1.2.3.4.L                                 ",
"^                       - y u ' w w w w w w w w w w w w w w w w w w w w w w w w w w w w 5.6.7.L                                 ",
"8.                      - y u ! w w 9.e +.a Z 0.Z Z Z Z Z Z 0.Z Z Z q.Z 0.Z Z q q 0.q.q w.e.r.L                                 ",
"E                       - y u i w w t.y.u.i.p.a.a.a.a.s.d.f.a.a.a.a.a.a.a.a.a.a.d.a.a.a.g.h.j.X                                 ",
"                        - y u p w w a k.l.B z.Q Q Q Q Q Q Q Q Q Q Q Q Q Q Q Q Q Q Q Q Q x.= c.                                  ",
"                        - y u k w w I v.b.-                                                                                     ",
"                        - y u C w w I ~ Y /                                                                                     ",
"                        - y u p w w I U Y R                                                                                     ",
"                        - y u C w w T U Y V                                                                                     ",
"                        - y u C w w Z U Y R                                                                                     ",
"                        - y u W w w Z U Y V                                                                                     ",
"                        - y u ! w w I ~ Y R                                                                                     ",
"                        - y u p w w T U Y /                                                                                     ",
"                        - y u ) w w Z n.b.-                                                                                     ",
"                        - y u ' w w a m.M.x.N.= = = = = = = = = = = = = = = = = = = = = = = = B.V.-                             ",
"                        - y u k w w C.Z.3.A.S.S.S.S.S.S.S.S.S.S.S.S.S.S.S.S.S.S.S.S.S.S.S.S.D.F.G.B.                            ",
"                        - y u i w w >.C.Z H.J.w.J.J.K.J.L.K.H.P.K.w.P.K.I.I.K.H.I.J.I.w.J.K.U.f Y.T.                            ",
"                        - R.E.W.w w w w w w w w w w w w w w w w w w w w w w w w w w w w w w w Q.!.~.                            ",
"                        - ^./.(.)._.).).).).`.`.).).).'.].[.).`.).].).).).`.).)._.).).).`.`.{.< }.B                             ",
"                        L ^ |. X.XXXXXXXXXXXXXXXXXXXXXXXXXXXXXXXXXXXXXXXXXXXXXXXXXXXXXXXXXXXXXoXOX+X                            ",
"                          E @X{ t t t t t t t t t t t #Xt t t t t t t t t t t t t t t t t t t $X%X-                             ",
"                                                                                                                                ",
"                                                                                                                                ",
"                                                                                                                                ",
"                                                                                                                                ",
"                                                                                                                                ",
"                                                                                                                                ",
"                                                                                                                                ",
"                                                                                                                                ",
"                                                                                                                                ",
"                                                                                                                                ",
"                                                                                                                                ",
"                                                                                                                                ",
"                                                                                                                                ",
"                                                                                                                                "
};
