/* XPM */
static char *_1a24f8be42e4048961dd99a5ff05319CXFZCbjtNr1Xpmb0[] = {
/* columns rows colors chars-per-pixel */
"64 64 201 2 ",
"   c #290D16",
".  c #3B1A24",
"X  c #3B1F28",
"o  c #341C24",
"O  c #461D25",
"+  c #41232B",
"@  c #4C2D34",
"#  c #422731",
"$  c #522D36",
"%  c #593236",
"&  c #53323A",
"*  c #58393E",
"=  c #4C353D",
"-  c #603B3D",
";  c #7E3939",
":  c #5C3B42",
">  c #663D44",
",  c #5B4144",
"<  c #564249",
"1  c #594449",
"2  c #654046",
"3  c #6A4546",
"4  c #63464C",
"5  c #6C4C4D",
"6  c #6D4749",
"7  c #734546",
"8  c #72474C",
"9  c #7D4A4E",
"0  c #7B4645",
"q  c #79514E",
"w  c #654D54",
"e  c #7C4E52",
"r  c #6B5355",
"t  c #69545A",
"y  c #73585D",
"u  c #745558",
"i  c #7A605C",
"p  c #6F5C60",
"a  c #795E62",
"s  c #7F696D",
"d  c #7B6465",
"f  c #7B6C71",
"g  c #903936",
"h  c #A2403C",
"j  c #8D4442",
"k  c #834E52",
"l  c #835254",
"z  c #835B5A",
"x  c #8B5B5A",
"c  c #875657",
"v  c #935C5B",
"b  c #AF4C44",
"n  c #A5534B",
"m  c #BE5A4C",
"M  c #AE5B50",
"N  c #8E625E",
"B  c #86605D",
"V  c #93615E",
"C  c #9B645E",
"Z  c #A36C5F",
"A  c #826764",
"S  c #876868",
"D  c #966764",
"F  c #956A65",
"G  c #9B6964",
"H  c #946D69",
"J  c #9D736C",
"K  c #90726C",
"L  c #806F74",
"P  c #8A797B",
"I  c #897576",
"U  c #967A76",
"Y  c #A06A66",
"T  c #A86D63",
"R  c #A3756D",
"E  c #AA756B",
"W  c #A67A6D",
"Q  c #AC7A6C",
"!  c #B37C6F",
"~  c #BC7867",
"^  c #A77A72",
"/  c #C25C4D",
"(  c #C36E5B",
")  c #CD6B57",
"_  c #D16F5A",
"`  c #C4705D",
"'  c #C8725D",
"]  c #D1765E",
"[  c #C27967",
"{  c #D97F65",
"}  c #9B847B",
"|  c #BF816F",
" . c #A8887E",
".. c #BB8675",
"X. c #B3887B",
"o. c #B78978",
"O. c #BD937F",
"+. c #D1866D",
"@. c #C18672",
"#. c #C68B76",
"$. c #CC987E",
"%. c #C6937D",
"&. c #D19076",
"*. c #937D81",
"=. c #8F8486",
"-. c #9B8484",
";. c #9C8A8D",
":. c #978787",
">. c #A48A83",
",. c #A48D8F",
"<. c #B18E82",
"1. c #AB9488",
"2. c #BA9384",
"3. c #B19689",
"4. c #B7988A",
"5. c #A38E92",
"6. c #AB9693",
"7. c #A6989A",
"8. c #AB9A99",
"9. c #B29D92",
"0. c #BB9E90",
"q. c #BCA394",
"w. c #B6A19C",
"e. c #BAA69A",
"r. c #B4A6A7",
"t. c #B5AAAC",
"y. c #BAACAC",
"u. c #B8A7A4",
"i. c #BEB1AD",
"p. c #B9ADB0",
"a. c #BCB3B3",
"s. c #BFB8B9",
"d. c #C29683",
"f. c #C39A85",
"g. c #C69D89",
"h. c #D19B81",
"j. c #CBA38C",
"k. c #CBA489",
"l. c #D2A68B",
"z. c #C6A691",
"x. c #CCAC94",
"c. c #C0A598",
"v. c #CBAB9A",
"b. c #C6AC9A",
"n. c #D3AF93",
"m. c #CCB39D",
"M. c #D4B195",
"N. c #DAB496",
"B. c #D6B59B",
"V. c #C4AFA7",
"C. c #C1B1A5",
"Z. c #CBB4A2",
"A. c #C4B6AE",
"S. c #CBBAAA",
"D. c #D4BAA4",
"F. c #DBBDA2",
"G. c #D3BDAA",
"H. c #C6B9B3",
"J. c #C3BABA",
"K. c #CABCBA",
"L. c #C5B8B5",
"P. c #DCC6AE",
"I. c #D7C2AD",
"U. c #CEC2BC",
"Y. c #D9C5BC",
"T. c #D7C8BB",
"R. c #EED0AB",
"E. c #E7D5BC",
"W. c #E9D7BD",
"Q. c #CDC4C3",
"!. c #CEC9CB",
"~. c #D1C6C2",
"^. c #D4CAC5",
"/. c #DBCDC6",
"(. c #D4CDCB",
"). c #D0C7C9",
"_. c #DBD2CD",
"`. c #D4CFD0",
"'. c #DAD5D4",
"]. c #DED8D7",
"[. c #DEDAD9",
"{. c #D7D4D5",
"}. c #E4D6C3",
"|. c #EADAC2",
" X c #E4DBD7",
".X c #E2DDDC",
"XX c #E0D6D2",
"oX c #E5E1DF",
"OX c #E5E3E3",
"+X c #E9E5E4",
"@X c #ECE9E6",
"#X c #EEEEED",
"$X c #F0EFEE",
"%X c #F0F0EF",
"&X c #EFF1F2",
"*X c #F3F3F3",
"=X c #F7F8F7",
"-X c #F5F7F8",
";X c #F7F8F8",
":X c #F9F9F9",
">X c #F8F8F7",
/* pixels */
":X#X:X#X;X$X*X*X*X*X%X-X#X:X#X:X@X;X#X-X#X*X$X*X*X%X-X%X;X#X;X#X;X#X;X$X>X$X*X*X$X-X$X;X#X;X#X;X#X:X#X;X#X-X$X*X*X$X;X#X;X@X:X@X",
"*X*X*X*X*X*X*X*X*X*X*X*X$X*X*X*X*X*X*X*X*X*X*X*X*X*X%X*X*X$X*X*X*X*X*X*X$X*X*X$X$X*X*X*X*X*X*X$X$X*X&X*X*X*X*X&X*X*X$X*X*X*X-X&X",
"@X:X#X*X%X*X%X*X*X$X-X%X>X#X-X#X;X$X;X#X>X$X*X*X$X].OX-X$X;X#X;X#X>X#X*X%X-X*X$XoX$X*X$X>X#X;X#X;X#X;X$X*X$X*X*X*X*X&X-X#X-X#X:X",
":X#X:X#X-X%X*X*X*X*X$X-X#X;X#X;X#X;X#X>X$X*X*X*X.X{.*X%X;X#X;X#X>X#X>X#X*X$X*X-XoX+X*X>X#X>X#X>X$X;X#X>X$X-X$X*X*X$X-X$X>X#X>X#X",
"*X*X*X*X*X*X*X*X*X*X*X*X$X*X*X*X*X*X*X*X*X*X*X@X(.#X*X*X*X*X*X*X*X*X*X$X*X*X*X*X@X`.$X*X$X*X*X*X$X*X$X*X*X*X*X*X*X&X*X$X*X&X*X*X",
"@X;X#X-X%X*X%X*X*X$X-X$X;X#X;X#X@X#X;X#X*X#X*X)..X-X$X*X%X:X#X:X#X;X#X;X%X*X%X*X-X/. X*X>X#X>X#X;X#X>X#X-X$X*X&X*X*X$X-X#X;X$X:X",
":X#X-X#X*X*X*X*X*X*X$X-X$X*X$X$X[.>X#X-X.X*X(.J.*X*X*X$X*X%X-X#X;X$X>X#X;X$X*X&X-XXXK.;X#X;X#X;X#X>X#X>X$X-X$X*X*X$X>X$X-X#X>X@X",
"-X*X*X*X*X*X*X*X*X*X$X*X*X*X*X+XOX*X*X#X'.].9.+X-X*X*X*X*X*X*X*X*X$X*X*X*X&X*X&X>XOX9.#X*X*X$X$X*X*X*X*X&X*X*X*X&X*X*X&X*X$X-X&X",
"@X;X#X-X%X-X%X*X*X$X-X%X-X#X:X[.@X#X:X.X[.u.~.;X*X*X*X*X#X:X#X:X#X;X#X>X$X*X&X*X*X$X-.`.:X$X>X.X;X#X;X$X;X$X*X$X*X*X$X>X#X>X#X:X",
":X#X-X%X-X%X*X*X*X*X$X-X#X-X$X+XOX:X&X`.y.6.#X*X*X*X*X$X*X#X-X#X;X$X>X#X-X$X*X*X*X:X;.r.:X*X#X X#X;X$X;X$X*X*X*X*X*X-X$X-X$X>X#X",
"-X$X*X$X*X$X*X%X*X*X*X*X*X*X*X.X.X*X&Xt.S J.;X#X*X%X*X*X*X*X*X*X*X&X*X$X*X&X*X*X&X:Xt.;.;X*X*XXX@X-X$X*X*X*X*X*X*X*X*X&X*X&X&X$X",
"@X:X#X-X%X-X*X*X*X%X*X%X;X#X:X]._.&X#Xs w [.:X*X*X*X$X>X#X:X#X:X$X;X#X;X$X-X$X*X*X:XQ.I &X$X>X(.*X#X;X#X-X$X-X*X&X*X$X>X$X:X$X:X",
":X%X-X%X*X$X*X*X*X*X*X*X$X;X*X@XA.*X[.X f :X%X*X*X%X*X%X*X*X*X#X>X#X-X#X-X$X*X*X&X:X`.p XX:X+XK.@X;X$X*X$X-X$X*X*X&X-X&X>X$X>X#X",
"-X&X*X$X*X*X*X*X*X*X*X*X$X*X*X*Xw.(.!.o s.:X%X*X*X*X*X*X*X*X*X*X*X&X*X$X*X&X*X*X*X;XOXa `.:X(.L.-X*X*X*X&X*X&X*X*X$X*X$X*X&X-X#X",
"@X:X#X-X%X-X%X*X*X%X-X$X>X#X;X*XQ.6.t.< #X*X*X*X*X*X%X*X%X:X#X:X$X;X#X>X$X-X$X*X*X*X$Xa Q.;X,.~.:X@X;X#X>X$X*X*X*X*X$X-X#X:X@X:X",
":X#X-X$X*X$X*X*X*X*X$X*X$X>X#X;X+X6.a t @X-X%X*X*X$X-X%X*X#X*X#X>X$X-X$X-X$X*X*X*X>XOXw a.r.*.:X&X>X#X>X$X-X$X*X*X*X-X$X-X#X:X#X",
"-X%X*X$X-X&X*X*X*X*X*X*X$X*X&X*X-X(.: w #X-X&X&X*X*X*X*X*X*X*X*X*X$X*X$X*X*X*X*X*X-XOX< , f oX>X*X*X*X*X$X*X*X*X*X*X-X$X*X&X-X$X",
"@X:X#X;X#X*X$X*X*X$X-X%X;X#X:X@X:X$Xp < [.OX-X&X*X*X#X*X#X-X#X:X#X;X%X-X%X-X%X*X*X*XOX$ : {.:X#X;X#X;X$X-X$X*X*X*X*X$X-X%X;X%X:X",
"-X#X-X$X>X&X*X*X*X*X$X-X$X*X$X>X#X:XI : `.$X&X&X*X*X*X%X*X*X*X#X;X$X-X%X*X%X*X$X$X:Xp.$ a.:X#X*X$X-X$X>X$X-X$X*X*X*X*X$X-X$X-X#X",
"-X&X-X$X*X$X*X*X&X*X*X*X&X-X&X>X#X:X7.: L.#X&X-X*X*X*X*X*X*X*X*X-X$X-X$X*X&X*X*X*X:X*.y *X-X*X*X$X*X$X*X&X*X*X*X*X$X*X*X*X$X*X$X",
"@X;X#X;X$X-X$X*X*X$X-X$X>X$X;X#X-X-X!.# P  X+X+X*X*X*X*X#X;X#X:X#X;X#X;X%X*X*X*X-X*Xy 5.:X#X:X#X;X#X;X$X-X$X*X*X&X-X$X;X%X:X#X:X",
":X$X-X$X-X$X*X&X*X*X$X-X$X*X$X;X#X-X@Xw % U.+X.X*X$X*X*X*X%X*X%X-X%X*X$X*X*X*X#X:X{.4 ).:X*X*X*X#X-X$X*X$X-X*X$X*X$X-X$X*X$X-X%X",
"-X$X*X$X-X$X*X*X*X*X$X*X$X-X$X>X%X*X:Xp.% >.OX'.*X*X*X*X*X*X*X*X*X$X-X$X*X*X@X.X*X=.y #X*X*X*X*X$X*X$X-X$X*X&X*X*X*X*X&X-X$X*X%X",
"@X:X#X;X$X-X$X*X*X$X;X#X-X#X;X#X:X#X-X%XP 3 t.^.#X*X&X*X@X*X#X=X#X;X$X;X%X-XoX#XJ.@ P *X*X#X:X#X;X#X:X$X-X$X-X*X*X*X$X;X#X;X#X:X",
"-X%X-X$X*X&X*X*X*X*X&X>X&X;X$X*X%X-X%X-XOXa : >.!.;X*X*X@X.X=X%X;X$X-X$X-X+X X[.A , J.:X*X*X#X*X$X>X$X-X$X*X&X*X*X$X-X$X-X$X;X%X",
":X&X-X$X-X$X*X*X$X*X*X*X$X*X$X-X%X*X%X*X*XOXf q -.@X;X&X#X'.=X%X-X$X-X*X@XA.A.U 7 s @X*X*X-X*X*X$X-X$X*X&X*X*X*X*X*X*X$X*X$X*X#X",
"@X:X#X-X$X>X*X*X*X$X*X$X;X#X;X#X;X%X;X#X-X*X%Xr.z :.+X:X+X(.+X:X#X:X#X(.K @ : > t !.:X%X*X#X:X#X:X#X;X$X;X$X*X*X*X*X$X;X%X;X#X:X",
"-X$X*X$X*X$X*X&X*X*X&X*X$X*X$X-X$X*X$X*X%X*X*X*XK.> t (.&Xi.[.*X*X.X6.3 O @ 4 p {.-X*X*X*X*X*X*X$X-X$X-X&X*X*X*X*X$X-X$X*X$X-X$X",
":X&X-X$X*X&X*X*X*X*X$X-X$X;X$X*X$X-X$X-X$X*X*X*X'.P X & S y ;.-X[.4 O : t } e.6.%X-X$X*X$X*X%X-X$X-X%X*X%X*X*X*X*X$X*X$X-X$X-X#X",
"@X:X#X-X$X-X$X*X*X$X;X$X>X#X;X#X;X#X-X%X;X$X*X*XU.S.:.* + . X I t   X I e.|.}.+X-X$X-X#X;X#X-X#X:X#X-X%X-X%X-X$X*X-X$X;X#X;X#X:X",
"-X$X-X$X*X*X*X*X*X*X&X*X$X*X$X-X$X*X$X*X*X*X$X-X].}.E.Z.i - % . . 9 x } G.S.^.$X*X*X*X*X*X*X*X*X$X*X$X-X*X*X&X*X*X*X*X*X*X$X*X$X",
"-X&X-X$X*X&X*X*X*X*X$X-X%X-X$X-X%X-X$X-X$X-X*X*X%XU.P.Z.9.E 9 & & Q o.} 1.y.#X*X*X*X$X*X$X-X$X-X$X-X$X*X$X*X*X*X*X$X*X$X-X$X-X%X",
"#X:X#X-X$X*X$X*X*X$X-X$X;X$X;X#X:X#X-X%X*X*X*X%X*XQ.>.9.K G k e > x O.u.`.=X*X*X*X$X-X$X;X#X;X#X;X#X;X$X>X%X*X*X*X*X$X;X$X;X#X:X",
"*X$X*X*X*X&X*X*X&X*X*X*X$X*X$X*X%X*X*X*X*X*X*X*X*X#X].(.U c e k 9 x 4.A.*X*X*X*X*X&X$X*X&X*X$X>X$X-X$X*X$X*X&X*X*X*X*X*X*X&X>X$X",
";X$X*X$X-X$X*X*X*X*X$X-X$X-X$X;X%X-X%X*X%X*X*X*X*X*X*X=X7.U A l V f.1.=.:X#X*X*X*X-X$X-X$X>X#X*X$X-X$X-X$X-X$X*X*X*X*X$X>X$X-X#X",
"#X;X#X;X$X-X$X*X*X$X-X$X;X#X;X#X;X#X:X#X*X*X*X*X*X*X*X:X=.d X.G F Z.9.a.*X*X%X*X*X$X*X$X;X$X;X#X;X#X;X#X;X$X*X*X&X*X$X;X#X;X#X:X",
"*X$X*X*X*X$X*X*X*X*X*X*X$X-X$X*X$X*X$X*X*X*X*X*X*X*X*X@XU C.e.V F I.T.U.:X*X*X*X*X*X$X*X*X*X&X*X$X*X$X*X&X*X*X*X*X*X*X*X*X&X*X$X",
";X$X-X%X-X$X-X&X&X*X$X>X$X;X#X;X#X;X#X;X&X*X#X*X*X%X:X(.W Z.W.N 7 b.P.i.*X*X*X*X*X*X&X>X$X;X$X>X$X;X$X-X$X*X&X*X*X$X-X$X>X$X>X#X",
"#X:X#X*X$X-X$X*X*X$X;X$X;X$X;X#X;X#X;X#X*X*X*X*X*X*X&X^.o.4.G.B N %.4.b.{.:X%X*X*X$X-X$X;X#X;X#X:X$X;X$X;X$X-X$X&X*X$X;X$X:X#X:X",
"*X$X-X$X*X*X*X*X*X*X&X*X*X*X$X*X*X*X*X*X*X*X*X*X*X*X@XB.M.X.q.O.f.q.q.x.8.*X*X*X*X*X&X*X$X*X$X*X&X*X$X*X&X*X*X*X*X*X*X&X*X&X*X&X",
";X$X;X$X*X$X-X*X*X*X$X-X$X;X$X;X$X*X$X*X$X-X*X*X*X-X+XN.N.>. .5 5 9.m.l.7 r.:X*X*X*X%X-X$X-X#X>X#X-X$X-X$X-X&X*X*X*X-X$X-X#X>X#X",
"@X;X#X;X$X*X$X*X*X$X-X$X;X#X;X#X:X#X;X#X;X$X*X$X$X:X[.l.k.u >.i 1 e.z.k.; 9 [.-X*X%X*X%X;X%X;X#X:X@X>X$X-X$X>X$X*X*X$X>X$X>X#X:X",
"-X*X*X&X*X*X*X*X&X*X*X*X$X*X$X*X*X*X$X*X*X*X*X*X$X-X.X#.$.* S A r 1.2.O.; g 0.%X*X*X*X*X$X*X$X*X&X-X&X*X$X*X*X*X*X*X*X&X*X&X&X$X",
":X#X-X$X-X$X*X*X*X*X$X-X$X;X$X-X#X;X$X;X%X-X$X*X&X-X+X! @.l 8 } 3.F X.k.j b ( C.-X&X%X-X$X-X$X>X#X>X$X>X&X*X$X*X*X$X*X$X>X#X;X#X",
"@X;X#X;X%X>X$X*X*X$X-X$X;X#X>X#X;X#X;X#X*X$X*X*X*X:X[.^ ! e > c F c ^ M.n b ) [ `.>X>X$X;X#X;X#X;X#X>X#X>X$X-X*X*X*X$X>X$X>X#X:X",
"*X*X*X&X&X&X*X*X*X*X&X*X&X*X$X*X*X*X$X*X*X*X*X*X*X*X.XJ Q z 2 x V V o.B.n m _ ] Y.-X&X*X$X*X*X*X*X*X*X*X&X*X&X*X*X&X*X&X*X&X*X*X",
":X#X;X$X-X$X*X*X*X*X$X*X$X;X#X>X#X;X%X-X%X-X$X*X*X*X#XK T E u 8 k x k.B.M ) ) ' /.:X$X;X$X;X#X;X#X>X#X>X$X-X&X*X*X$X-X#X-X#X;X@X",
"@X;X#X;X$X;X$X*X*X$X-X$X>X#X>X#X;X#X-X%X*X%X*X*X*X*X*X8.Z E H 6 k N k.j.` +./ ` _.*X*X$X;X#X;X#X>X#X>X#X>X$X*X$X*X-X$X-X$X:X$X:X",
"-X&X*X*X*X*X*X*X*X*X&X*X*X*X&X*X*X*X*X*X*X*X*X*X*X*X:XJ.W | F D c G d.^ ' { ' [ .X-X$X*X&X*X&X*X&X*X*X*X&X*X*X*X*X*X*X&X*X&X*X$X",
":X#X>X$X-X$X*X*X*X*X$X>X$X;X$X;X#X:X#X*X$X*X$X*X*X#X:XJ.Q $.Q F ^ ! G E ( +.&.f.+X-X$X>X$X>X#X>X#X>X#X-X$X*X&X*X*X$X*X$X>X$X:X@X",
"@X>X#X-X$X-X$X*X*X$X-X$X:X@X;X#X*X#X:X#X*X*X*X*X*X*X;X X2.l.#.C g.G k #.` #.h.v.$X*X*X$X>X#X>X#X:X@X>X#X>X$X*X*X*X*X$X-X$X>X#X:X",
"*X*X*X&X*X*X*X*X*X*X$X*X&X*X*X*X*X*X*X*X*X*X*X*X*X*X*X.Xg.%...v J F G N.` [ ! V.&X*X*X*X&X*X*X*X&X*X*X*X&X*X*X*X&X*X*X*X*X&X-X*X",
":X#X>X#X-X$X-X&X$X-X$X>X$X-X#X:X#X:X#X;X#X*X#X*X*X%X:X'.j...E v k Y f.R.+.! Q U.>X*X&X-X#X>X#X-X$X:X#X-X$X-X$X*X*X&X-X$X>X#X>X@X",
"@X:X$X;X$X-X$X*X*X$X-X$X>X#X>X#X*X#X:X#X*X*X*X*X*X*X*X@X<.Q Y v c ..M.B.#.2.R _.:X$X-X$X>X$X>X#X-X#X>X$X-X$X*X*X&X*X$X>X#X-X#X:X",
"*X-X&X&X&X&X*X*X&X*X*X&X*X*X*X&X*X*X*X*X*X*X*X*X*X%X*X*X8.H X.! Q F.q.B R B.9.Q.>X&X&X*X*X&X*X*X*X&X*X&X*X$X*X*X*X*X*X*X&X*X&X-X",
":X#X>X#X>X$X*X*X*X*X$X-X#X>X#X:X#X:X#X*X*X*X*X*X*X*X*X*X+X-.4.v.F.W.m.5 8 z.+X$X&X*X$X>X#X>X#X>X#X>X#X>X$X-X&X*X*X*X-X$X-X$X-X@X",
"@X;X#X>X$X*X$X*X*X&X-X$X-X$X;X#X:X#X*X#X*X*X*X*X*X*X#X*X*X#Xb.j.F.E.g.R S L.%X*X*X&X>X$X>X#X-X$X:X$X-X$X-X$X*X*X*X*X$X>X#X>X#X:X",
"*X*X&X*X&X*X*X*X*X*X*X$X*X$X*X&X*X*X*X*X*X*X*X*X*X*X*X*X*X*X'.g.F.P.X.4.L.OX*X*X*X*X*X$X*X&X*X&X*X&X*X*X*X*X*X*X*X*X*X&X&X*X*X*X",
":X$X>X#X>X$X-X&X*X*X$X-X#X>X$X;X#X:X#X-X#X*X*X*X*X#X*X*X*X&X*Xc.M.z.<._.*X*X*X*X&X*X$X>X$X:X#X>X#X>X@X-X$X-X$X*X*X*X-X$X>X$X-X@X",
"@X:X#X-X$X-X$X*X*X$X-X$X>X$X>X#X*X*X*X#X*X*X*X*X*X*X*X*X&X*X*X(.>.q.(.;X#X*X*X*X*X$X-X$X>X#X-X#X>X#X>X#X-X$X*X*X$X*X$X>X$X-X#X:X",
"*X-X&X&X*X*X$X*X*X&X*X&X&X&X*X*X*X*X*X*X*X*X*X*X*X*X*X*X*X*X*X*X.XOX*X*X*X*X*X*X*X*X*X&X*X&X*X&X&X*X*X&X*X&X*X*X*X*X&X*X&X*X&X-X",
":X#X;X$X-X$X*X*X*X>X&X>X$X:X#X>X#X:X@X-X#X*X#X*X*X%X*X#X>X#X*X#X:X#X:X#X*X*X*X*X*X*X$X>X$X>X#X>X#X:X#X>X$X>X$X*X*X$X-X$X-X$X-X@X",
"@X>X$X-X$X-X$X*X*X$X*X$X-X#X>X#X*X*X*X#X*X*X*X*X*X*X*X*X#X-X#X;X#X;X#X*X&X*X$X*X*X&X-X$X>X$X>X#X-X#X>X$X>X&X*X$X*X*X$X-X#X>X$X:X",
"&X-X$X*X&X*X*X*X*X*X*X$X-X$X-X$X*X*X*X*X*X*X*X*X*X*X*X*X$X*X*X*X*X*X*X*X*X*X*X*X*X&X*X&X*X$X-X$X-X$X-X$X*X&X*X*X*X*X*X*X&X-X$X-X"
};
