/* XPM */
static char *_c95c9a9343e4b85f668880df39f52c9jHvXdPkuPCMjcKDX[] = {
/* columns rows colors chars-per-pixel */
"64 64 146 2 ",
"   c #46A6E3",
".  c #49A7E4",
"X  c #4CA9E5",
"o  c #51ADE6",
"O  c #59AFE5",
"+  c #54AFE8",
"@  c #56B0E8",
"#  c #5CB4EB",
"$  c #61B6EC",
"%  c #66B9ED",
"&  c #6BBBED",
"*  c #74BBE7",
"=  c #7CBDE6",
"-  c #72BDEB",
";  c #7BBEE8",
":  c #71BFF0",
">  c #7FC0E7",
",  c #74C0EF",
"<  c #7CC1EB",
"1  c #75C1F0",
"2  c #7BC4F1",
"3  c #81BEE5",
"4  c #80BFE8",
"5  c #A1C4DA",
"6  c #A7C8DC",
"7  c #AFCDDF",
"8  c #84C1E6",
"9  c #8CC4E6",
"0  c #84C3EA",
"q  c #8BC5EA",
"w  c #8DC9EE",
"e  c #93C6E5",
"r  c #95C9E7",
"t  c #9CCAE6",
"y  c #90C7E9",
"u  c #94CAEB",
"i  c #9ECFEE",
"p  c #9ECFED",
"a  c #9BCCEA",
"s  c #9FD0EE",
"d  c #82C7F2",
"f  c #86C9F3",
"g  c #8BCBF3",
"h  c #93CEF3",
"j  c #97D0F4",
"k  c #9BD1F4",
"l  c #A2CCE6",
"z  c #A3CCE5",
"x  c #ACCDE2",
"c  c #A2CEE8",
"v  c #A2CEE9",
"b  c #A8CFE8",
"n  c #B1CFE2",
"m  c #ACD1E7",
"M  c #A4D0EC",
"N  c #A5D1EB",
"B  c #ACD2E9",
"V  c #ADD2E9",
"C  c #AFD3E8",
"Z  c #AED3E9",
"A  c #ACD2EA",
"S  c #AAD3EC",
"D  c #A8D4EE",
"F  c #AED5ED",
"G  c #ABD2EA",
"H  c #B3D3E7",
"J  c #B5D2E4",
"K  c #B6D4E6",
"L  c #B5D4E6",
"P  c #B9D4E5",
"I  c #B9D4E6",
"U  c #B9D5E6",
"Y  c #B9D6E7",
"T  c #B9D5E7",
"R  c #B0D2E8",
"E  c #B0D3E9",
"W  c #B0D4E9",
"Q  c #B2D5EA",
"!  c #B2D5EB",
"~  c #B0D4EA",
"^  c #B5D4E8",
"/  c #B5D5E8",
"(  c #B4D5E9",
")  c #B5D7EB",
"_  c #B0D7EE",
"`  c #B4D6EA",
"'  c #B8D6E8",
"]  c #B8D7E9",
"[  c #BAD7E9",
"{  c #BAD7E8",
"}  c #B7D8EB",
"|  c #B1D8EF",
" . c #B6D8EC",
".. c #BBD8E9",
"X. c #B9D8EA",
"o. c #BAD8EA",
"O. c #BDD8E9",
"+. c #BCD8EA",
"@. c #BDD9EA",
"#. c #BFDBEB",
"$. c #B8DAEF",
"%. c #BDDAEC",
"&. c #BEDBEC",
"*. c #BFDBEC",
"=. c #BCDAEB",
"-. c #A4D5F5",
";. c #A8D7F5",
":. c #ADDAF6",
">. c #B1D8F0",
",. c #B1DCF6",
"<. c #B9DFF7",
"1. c #C1DAEA",
"2. c #C1DBEB",
"3. c #C2DBEB",
"4. c #C2DCEB",
"5. c #C3DCEB",
"6. c #C5DDEB",
"7. c #C1DCEC",
"8. c #C2DCEC",
"9. c #C3DCEC",
"0. c #C4DDEC",
"q. c #C4DDED",
"w. c #C6DEEC",
"e. c #C6DFED",
"r. c #C7DFED",
"t. c #C4DEEF",
"y. c #C6DFEE",
"u. c #C2DCEC",
"i. c #C8DFEE",
"p. c #C3DFF0",
"a. c #C7E0EF",
"s. c #C9E0EE",
"d. c #C8E0EF",
"f. c #C9E1EF",
"g. c #CAE1EF",
"h. c #CBE1EF",
"j. c #CBE1EF",
"k. c #C4E0F1",
"l. c #C6E0F0",
"z. c #CAE1F0",
"x. c #CCE2F0",
"c. c #CCE3F1",
"v. c #CEE3F0",
"b. c #CDE4F1",
"n. c #CFE4F1",
"m. c #D1E5F1",
/* pixels */
"o X . .                     X X o o + O o o o o O O X o X O X o X X o X X X X X X X X X . . X . X . X X X X X X X X X X X X X X ",
"X X . .                     X X o o o o O o O o X X o o o X X X O X X X X o o X X X X X X . . . . X X X X X X X X X X X X X X X ",
"X X . . X                 . X X X X o + o o o o X o X X O X o X X X X X X X X X X X X . . . . X . X . X X X X X X X X X X X X X ",
"X X X X X o               . . X X X + + O o o X X o X o X X X X X X X X X X X X X X . X . . X . . . . X X . X X X X X X X X X X ",
"X X o X @ X o X     X         X X X o o + o + X o X X X O X X X X X X X X X X X X X . X X . . X X . X X . X . X . X   X X X X X ",
"X o o X o o X X   X X   X X   X X X o o o + X X X X X X X o o X X X o o X o X X X X X X X X . X . X X . . . X X   X X X X X X X ",
"X o o o o o X X o o o X X X X X X o + X o o X X X X X X o o o X o o o o o o o X X X . X . o o X X . X X X X . . X X   X X X X X ",
"o o X o o o o o o o o o o o o o o X o + o o + X o X . X o o o o o o o o o O o o X X X . . o X o X X X X o X X X X X X X   X X X ",
"X X X + + X X + o o + o o o o o o o o + o @ + + X X o o o o o + o o o o + + + + X X . X X o o o X o o o o X X X O X X X X   X X ",
"X X + X + + + + o + + + o + + + + o + @ @ @ + + + X + X o o o o O O O o @ + + + + X X + + + X o o + + o + + X o X X X     X   X ",
"+ X + + + + + + + + + + o + + + + @ O @ @ @ @ + @ + + + o o + + + + + + + + + + + X + O + X + + o + + o + + o o O o X X . X X X ",
"+ @ + + + + + @ + + + + o + + + @ $ $ $ @ @ @ @ + + + @ + o + @ + + + + + O @ + @ + + + + + + + + + + + + o o o O X o o X X X   ",
"@ @ + @ @ @ + + + + + + o + + @ # $ $ $ $ # # @ @ @ @ @ + + @ + + + + # + + + + + + @ @ + + + @ + + @ + + + o @ + o o o X X X . ",
"@ # @ + @ @ @ @ + + + + + + @ @ O $ $ $ $ $ # @ @ @ @ @ + @ @ @ O # + + # @ + + + @ @ + + + + @ @ @ @ + + + @ @ + + o @ O o o X ",
"# @ @ @ + @ # @ @ + + + + @ @ @ + @ $ $ $ $ # @ @ @ # @ @ @ @ @ + # # # # + + # @ @ @ + + @ + @ + @ # @ + + # @ @ @ @ o @ o o o ",
"# # @ @ # # @ @ @ @ + + + + + + + + O $ $ $ # # @ # # # O @ @ @ # # # # # + @ + @ @ # # @ @ @ @ @ # # # @ @ # # # # @ @ @ @ @ O ",
"# # # # # # # @ @ @ @ + @ - r e t y w $ # $ # # # $ # $ # @ @ # $ # # # # # # o @ # # # # @ # @ # # # # # # # # # # # @ @ + + + ",
"# # # # # # # # @ O + O 8 H Y 6.i.s.>.p & # $ $ $ # $ $ $ $ $ # $ # $ # $ # # # # # # # # # # # # # # # # # # # # # # # # # + + ",
"# # $ # # $ # $ # @ $ e U Y O.q.s.s.z.p.s > $ # $ $ # # $ $ $ $ $ # # $ $ # # # # # # # $ # # $ # # # $ # $ # # # # # # # # # + ",
"# # # $ $ $ # # # # 8 H O.O.1.s.s.x.m.x._ i q * = % $ & $ $ $ $ $ $ $ $ # $ # # # # # $ $ $ # $ $ $ $ $ $ $ # # # # # # # # # # ",
"# # # # $ $ $ , 4 r b 1.7.7.9.9.a.x.s.s.l._ S / a > < u 0 8 % $ $ $ $ # $ # $ # # # $ $ $ $ $ # $ $ $ $ $ # # # # # $ # # # # # ",
"# $ $ $ # $ % j Y Y 1.s.7.[ [ [ O.X.7.7.i.q.s.n.l.s k | >.G 3 % $ $ $ $ $ $ # # # # # $ # $ $ $ $ $ % $ $ # # # % $ $ $ # # # # ",
"$ % % % $ $ 2 F 5.7.q.q.[ / ^ / ~ a G 6.5.1.%.&.a.q.l.m.n.l.%.a & # $ $ % * % $ # # $ $ $ $ $ $ % $ $ $ $ # # $ # % $ # # # $ $ ",
"% % % % & % q a ~ o.5.~ c c H H C a a ~ o.m F ~ ~ &.a.z.z.z.z.q.v 0 * * - & - & $ $ # $ $ $ $ $ $ $ $ $ $ $ $ $ % # $ $ # $ $ $ ",
"% % % % % & 0 q c b G a a r t G v t u y a v v v a v ^ ! [ O.%.9.x.q.y 0 ; * - * & $ $ # $ $ $ $ $ % % $ $ $ $ $ # # $ # $ $ $ # ",
"% & % % & & 0 q 9 q t t r r q r t a r u t v t t a y r v b C ^ C ) 9.t 8 0 4 ; - - $ $ $ $ $ % & * % * % $ $ $ $ # % $ $ $ $ $ $ ",
"% % % % % - - 0 0 8 9 q 0 8 0 9 a t r a v a r q 8 8 9 y r t b v v v 9 8 4 ; ; * & % % % % & % $ - 4 4 - $ $ $ $ % # # $ $ $ $ $ ",
"% : % : % : , < > ; > < ; ; ; > 4 8 9 9 r y 8 0 - ; 4 ; 3 3 r u a = = ; 4 * * & & $ $ % & & & - b x x 9 & % % & , , , % $ $ $ $ ",
": : & & 1 1 , & * - * * * = 4 ; * ; > 0 9 ; * ; - > > < = 3 3 8 = & * - * * * % % $ % % 2 0 u G [ ^ / ^ r 8 ; 3 r 9 > > 1 # , # ",
"& 1 1 1 1 1 1 , & & & - - ; ; - & - ; - - & - - - < > < * * ; ; * % % & % & * $ $ % % - u N ~  .o.o.! ! { O.b t t l z 6 a < , # ",
"& 1 1 1 1 2 1 , & & & & & & * & & : & - : : % - * - - & & % % % $ $ $ $ % % % % & % % , u ) ) %.1.[ P n K 7.o.N t t 7 7 7 z 2 , ",
", 1 1 1 1 1 1 2 - - 1 & & & - & : : : & : : & & : & , : : & , % & & & & & : : 0 , - < w v F ^ / / Y [ [ O.6.q.o.l e x n 7 t q , ",
"1 1 1 2 2 1 1 1 2 1 2 1 , , , 1 , , , , , , , , : 1 : 1 1 : : & & : : : : : y h u u l G ^ N G G K O.#.O./ ) &.a.=.N z 7 7 z l r ",
"1 1 2 2 2 2 1 2 2 2 2 2 1 1 1 1 , , , , , , , , 1 & 1 1 1 : : : - : : : 2 u v v S / /  .F G c m O.O.5.| N N )  .=.&.P m J J K H ",
"2 2 2 2 1 2 2 2 2 2 2 2 1 1 1 1 , , , 1 , , 1 1 , , 1 1 1 1 : - : : 2 2 a ^ ) ) O.X. .#.7.~ a G X.#.#.G N N N G N | O.K K K O.O.",
"d d f 2 2 2 2 2 2 2 2 2 2 2 2 2 1 , 1 1 1 , 1 < 1 : 1 1 1 1 2 2 : 2 ; r z b [ %._ S F <.i.%.a i | #.F N N c a N D N b B b B K H ",
"2 d 2 f 2 2 f 2 2 2 f 2 2 2 2 2 1 2 1 1 2 w f w u w 2 < 2 2 2 2 2 2 8 r e t v a u u M S N p q a a a u r q q 9 q r u q a t t N r ",
"f f f f f 2 f 2 2 f f f f 2 2 d 2 2 2 f u a a a M k u h f 2 2 2 2 2 d 9 3 9 9 9 q r q q q 8 w q 0 q 0 0 8 > > 9 w u r r r 9 e 8 ",
"g h g d f f f 2 f f f f g f g f g g j k G D N D N N k w g f d d d d d 0 4 ; ; ; 0 0 0 0 q 9 9 0 0 < 8 0 0 8 4 8 0 8 = ; ; ; 3 8 ",
"h h g f g g 2 f g g f f f f g g g u j s a a s a u a s s p u a h u g d d d ; ; ; * ; 8 8 9 0 9 8 8 8 8 8 4 8 8 8 8 8 8 = ; < , < ",
"h g g h h g f f g g g g g j g g g u q q a u q q w u h i h u a v i w d f g f d q 0 8 9 r g f f 2 d d 2 2 0 0 d q 9 w d d 2 2 d d ",
"j g g h h h g g g j j k k j j j g g f g w g g f d f w u h j h w d f f f g g f g q q w f g f f d f f g g g d d d f 2 f d d d f f ",
"k h j j j j k h j k k k k k k k j j g g j g f g f f f g h h h d f f f f g g f f 0 g 0 f g f f g g g g h g d d d f f f d d f g f ",
"j j j k h j k k k j j k j j k j k k k j j g g g g g g j h h h w f g f g g h g g h g g g h g g g g g g f d d f f f f f f d f g f ",
"j j j j k k k k k j j k k j k j j k k j j g g g g g j k h g j j g g f j j h j j k j g j k j h g g g f g f f h g g g g f f f f g ",
"k j j k k k k k k k k ;.k -.k k k k k k j j g g j h j j j j j j k k j k j j k k k k k k k j h g h g g g g h h h f g k h j j g f ",
"j k k -.k k k k k -.;.-.;.-.;.-.k k k k k k k k j k j k j j j j k j k j k k k k k k k k k k k g g g g g f h k k h k k -.k k j h ",
"j k k -.k -.:.:.k -.;.;.;.;.-.;.;.;.-.-.j k k k k k k j j k k j k k k k k k k k k k k k k k k k k k h h h -.-.k k :.,.:.k k h h ",
"k k -.k -.:.,.:.:.,.,.:.;.-.;.;.:.:.-.;.-.k -.k k k k k j k j k k k k k k k k k -.k k k -.k k k k k k k :.,.:.-.;.,.,.,.;.k k k ",
"k -.k -.:.:.:.:.,.,.,.,.,.:.:.:.-.:.:.:.;.k k k k k k k k k k k k k -.;.:.;.;.-.k k -.-.k k -.k k -.k ;.,.:.:.:.,.,.,.,.-.k k j ",
"k k -.:.:.:.:.,.,.,.,.,.,.,.,.,.-.:.:.;.;.k ;.;.k k -.k -.j k k k ;.:.:.,.,.,.:.;.-.-.k -.h k -.-.k k ;.,.:.:.,.,.,.,.:.-.;.;.;.",
"k -.;.,.,.:.:.,.,.,.,.,.,.,.,.:.:.-.;.:.:.:.;.;.;.:.:.:.:.;.-.;.;.:.:.:.:.,.:.,.,.,.;.k k k k k k -.;.,.,.,.,.,.,.,.,.-.:.,.,.,.",
"k -.:.,.,.:.,.,.,.,.:.,.,.,.,.,.:.-.:.:.:.:.:.:.,.:.:.:.:.,.,.:.:.,.:.,.,.:.,.,.,.,.,.;.k k -.-.k ;.,.,.,.:.:.,.,.,.,.,.,.,.,.,.",
"k ;.:.,.,.,.,.,.,.,.,.,.,.,.,.:.-.;.:.:.:.,.:.:.,.:.:.,.:.:.:.:.:.:.,.:.,.:.,.,.,.:.,.:.;.;.,.:.,.,.:.,.:.,.:.,.,.,.,.,.,.:.,.,.",
"-.:.,.,.,.,.,.,.,.,.,.,.,.,.,.,.:.:.:.:.,.:.,.:.:.:.,.,.,.,.:.,.:.:.,.:.,.,.,.,.,.,.,.,.:.,.,.,.,.,.,.,.,.:.,.,.,.,.,.,.,.,.,.,.",
":.:.:.,.,.,.:.:.,.,.,.,.,.,.,.,.,.:.:.:.:.,.:.,.:.,.:.,.,.,.,.,.:.:.,.,.,.,.,.,.,.:.,.:.,.,.,.,.,.,.,.:.,.,.,.:.,.,.,.,.,.,.,.,.",
";.:.:.:.:.:.:.:.:.,.,.,.:.,.,.,.,.,.:.:.,.:.:.:.:.,.:.,.,.:.:.,.:.:.,.,.,.,.,.,.,.:.,.,.,.,.,.,.,.,.,.,.,.,.,.,.,.,.,.,.<.,.,.,.",
":.:.:.;.;.:.:.:.:.,.<.,.,.,.,.,.,.,.:.:.:.,.,.,.:.:.,.:.:.,.,.,.:.,.,.,.,.,.,.,.,.,.:.,.,.,.,.,.:.,.,.,.,.,.,.,.,.,.,.,.,.,.,.,.",
":.;.:.:.:.:.:.:.,.<.<.<.<.,.<.,.,.,.:.:.:.,.:.:.,.,.,.,.,.,.:.:.:.,.,.,.,.,.,.,.,.:.,.,.,.,.,.,.,.,.,.,.,.,.,.,.,.,.,.<.,.,.,.,.",
":.:.:.:.,.:.:.:.,.<.<.<.,.,.,.,.,.,.:.:.,.:.:.:.,.:.:.,.,.:.,.:.,.,.,.,.,.,.,.,.,.,.,.,.,.,.,.,.,.,.:.,.,.,.,.,.,.<.,.,.,.,.<.,.",
":.:.:.,.:.:.:.,.<.<.<.<.,.,.,.,.,.,.,.:.,.:.:.:.:.,.,.:.,.:.,.,.,.,.,.,.,.,.,.,.,.,.,.,.,.,.,.,.,.,.,.,.,.,.,.,.,.,.,.,.,.,.,.,.",
":.:.:.:.:.:.:.,.<.<.<.,.<.,.,.,.,.:.:.:.:.,.:.:.:.:.,.,.,.:.,.,.,.,.,.,.,.,.<.,.,.,.,.:.,.,.,.,.,.,.,.,.,.,.<.,.,.,.<.,.,.,.,.<.",
":.:.,.;.:.:.,.,.<.<.<.<.,.,.,.,.,.:.-.-.,.:.:.;.:.:.,.:.:.,.,.,.,.,.,.,.,.,.,.,.,.:.:.,.,.,.<.,.,.,.,.,.,.,.,.,.,.,.<.,.,.,.,.,.",
";.,.;.;.;.;.;.,.<.<.,.<.,.,.:.,.,.-.-.-.-.k -.;.:.:.,.,.,.,.,.,.,.,.,.,.,.,.,.,.,.:.,.,.,.<.,.,.,.,.,.,.,.,.,.,.,.$.,.,.,.,.,.,."
};
