/* XPM */
static char *result[] = {
/* columns rows colors chars-per-pixel */
"64 64 42 1 ",
"  c #010101",
". c #080707",
"X c #090909",
"o c #0F0F10",
"O c #111111",
"+ c #1C1C1C",
"@ c #242424",
"# c #282827",
"$ c #2B2B2B",
"% c #323232",
"& c #3C3C3C",
"* c #444444",
"= c #494949",
"- c #545454",
"; c #585857",
": c #5C5C5C",
"> c #605F60",
", c #636363",
"< c #6B6B6B",
"1 c #737373",
"2 c gray50",
"3 c #858585",
"4 c #8B8B8B",
"5 c #949595",
"6 c #979898",
"7 c #9D9D9D",
"8 c #A4A4A4",
"9 c #AAAAAA",
"0 c #B5B5B5",
"q c #BCBCBC",
"w c #C5C5C5",
"e c #CECECE",
"r c #D0CFCF",
"t c #CFCFD0",
"y c #D1D1D1",
"u c #D8D8D7",
"i c #DBDBDB",
"p c #E3E3E3",
"a c #E7E8E7",
"s c #EBEBEB",
"d c #F4F4F4",
"f c #FFFFFF",
/* pixels */
"ffffffffffffffffffffffffffffffffffffffffffffffffffffffffffffffff",
"ffffffffffffffffffffffffffffffffffffffffffffffffffffffffffffffff",
"ffffffffffffffffffffffffffffffffffffffffffffffffffffffffffffffff",
"ffffffffffffffffffffffffffffffffffffffffffffffffffffffffffffffff",
"ffffffffffffffffffffffffffffffffffffffffffffffffffffffffffffffff",
"ffffffffffffffffffffffffffffffffffffffffffffffffffffffffffffffff",
"ffffffffffffffffffffffffffffffffffffffffffffffffffffffffffffffff",
"ffffffffffffffffffffffffffffffffffffffffffffffffffffffffffffffff",
"ffffffffffffffffffffffffffffffffffffffffffffffffffffffffffffffff",
"ffffffffffffffffffffffffffffffffffffffffffffffffffffffffffffffff",
"ffffffffffffffffffffffffffffffffffffffffffffffffffffffffffffffff",
"ffffffffffffffffffs07557edfffffffffffffffdi8657ydfffffffffffffff",
"ffffffffffffffffffy-+oX+,yfffffffffffffffd9%Xo+5sfffffffffffffff",
"ffffffffffffffffffy=.   @7sffffffffffffffd9@  X4sfffffffffffffff",
"ffffffffffffffffffy=.   X=wffffffffffffffd9@  o4afffffffffffffff",
"ffffffffffffffffffy=.    +3pfffffffffffffd9@  O4sfffffffffffffff",
"ffffffffffffffffffy=X     &0dffffffffffffd9@  o4sfffffffffffffff",
"ffffffffffffffffffy=X     X<uffffffffffffd9@  o4sfffffffffffffff",
"ffffffffffffffffffy=X      #7dfffffffffffd9@  o4afffffffffffffff",
"ffffffffffffffffffy=.      X-wfffffffffffd9@  o4sfffffffffffffff",
"ffffffffffffffffffy=.  O+   +3affffffffffd9@  o4sfffffffffffffff",
"ffffffffffffffffffy=. X%=+  .&0dfffffffffd9@  o4sfffffffffffffff",
"ffffffffffffffffffy=. .*5=.  O1ufffffffffd9@  O4sfffffffffffffff",
"ffffffffffffffffffy=. .=q5@   $7dffffffffd9@  O4sfffffffffffffff",
"ffffffffffffffffffy=X .=eu>o  X;edfffffffd9@  O4afffffffffffffff",
"ffffffffffffffffffy=. .=ed9%   +4afffffffd9@  O4sfffffffffffffff",
"ffffffffffffffffffy=. .=efa1+  .*0fffffffd9@  X4sfffffffffffffff",
"ffffffffffffffffffy=. .=effq=.  O<iffffffd9@  O4afffffffffffffff",
"ffffffffffffffffffy=X .=tffs4@  .%7dfffffd9@  O4sfffffffffffffff",
"ffffffffffffffffffy=X .=efffy:X  X:efffffd9@  O4sfffffffffffffff",
"ffffffffffffffffffy=. .=yfffd8%   @3sffffd9@  O4afffffffffffffff",
"ffffffffffffffffffy=. .=effffp1+   =qdfffd9@  O4sfffffffffffffff",
"ffffffffffffffffffy=. .=effffdq*.  +<pfffd9@  O4sfffffffffffffff",
"ffffffffffffffffffy=. .=yfffffa4+   %8dffd9@  O4sfffffffffffffff",
"ffffffffffffffffffy=. .=rffffffe:X  X;yffd9@  X4afffffffffffffff",
"ffffffffffffffffffy=. .=effffffd8%  .@4afd9@  O4sfffffffffffffff",
"ffffffffffffffffffy=X .=efffffffi1O  .=qdd9@  O4sfffffffffffffff",
"ffffffffffffffffffy=. .=yfffffffd0*.  +1pd9#  O4afffffffffffffff",
"ffffffffffffffffffy=. .=effffffffa4+   %9a9@  O4sfffffffffffffff",
"ffffffffffffffffffy=. .=yfffffffffe;X  o:e8@  O4sfffffffffffffff",
"ffffffffffffffffffy=X .=tfffffffffd8#.  @45@  X4afffffffffffffff",
"ffffffffffffffffffy=X .=effffffffffy1O  X&<+  O4sfffffffffffffff",
"ffffffffffffffffffy=. .=yffffffffffd0&.  O%X  O4sfffffffffffffff",
"ffffffffffffffffffy=X .=efffffffffffa3+   ..  O4sfffffffffffffff",
"ffffffffffffffffffy=. .=effffffffffffw-X      O4afffffffffffffff",
"ffffffffffffffffffy=. .=effffffffffffd8$      O4sfffffffffffffff",
"ffffffffffffffffffy=. .=yfffffffffffffy<O     X4afffffffffffffff",
"ffffffffffffffffffy=. .=efffffffffffffd0&.    O4sfffffffffffffff",
"fffffffffffffffffft=X .=effffffffffffffa3+    o4sfffffffffffffff",
"ffffffffffffffffffy=. .=effffffffffffffdw-X   O3sfffffffffffffff",
"ffffffffffffffffffy-OX+-yfffffffffffffffs7$XXX+5sfffffffffffffff",
"ffffffffffffffffffp5,,,4pffffffffffffffffi4,,,<0dfffffffffffffff",
"ffffffffffffffffffdueetudffffffffffffffffdpyeeeadfffffffffffffff",
"ffffffffffffffffffffffffffffffffffffffffffffffffffffffffffffffff",
"ffffffffffffffffffffffffffffffffffffffffffffffffffffffffffffffff",
"fffffffffffffffffffffffffffffffffsuaffffffffffffffffffffffffffff",
"fffffffffffffffffffffffffffffffffw30dfffffffffffffffffffffffffff",
"ffffffffffffffffffffffffffffffffd5%1sfffffffffffffffffffffffffff",
"fffffffffffffffffffffffffffffffft:X*qfffffffffffffffffffffffffff",
"fffffffffffffffffffffffffffffffd7# +2sffffffffffffffffffffffffff",
"fffffffffffffffffffffffffffffffi<X  =edfffffffffffffffffffffffff",
"ffffffffffffffffffffffffffffffd9%   @4dfffffffffffffffffffffffff",
"ffffffffffffffffffffffffffffffp1o   .-yfffffffffffffffffffffffff",
"fffffffffffffffffffffffffffffd0=     #8dffffffffffffffffffffffff"
};
