/* XPM */
static char *result[] = {
/* columns rows colors chars-per-pixel */
"64 64 54 1 ",
"  c #010101",
". c #070807",
"X c #070708",
"o c #0B0B0B",
"O c #0F0F10",
"+ c #0F1010",
"@ c #131313",
"# c #1C1C1C",
"$ c #1F2020",
"% c #242424",
"& c #272728",
"* c #2B2B2B",
"= c #302F2F",
"- c #343434",
"; c #383837",
": c #373738",
"> c #3B3C3B",
", c #3F4040",
"< c #444444",
"1 c #474847",
"2 c #4C4C4C",
"3 c #535353",
"4 c #575758",
"5 c #5B5B5B",
"6 c #646463",
"7 c #6D6D6D",
"8 c #6F7070",
"9 c #747474",
"0 c #777877",
"q c #777778",
"w c #7C7C7C",
"e c #807F7F",
"r c #838282",
"t c #8C8C8C",
"y c #939393",
"u c #9B9B9B",
"i c #A4A4A4",
"p c #A7A8A7",
"a c #A8A7A8",
"s c #ACACAC",
"d c #B3B3B3",
"f c #BBBBBB",
"g c #BFBFC0",
"h c #C3C3C3",
"j c #CCCCCC",
"k c #D4D4D4",
"l c #D7D7D8",
"z c #D8D7D8",
"x c #DDDDDD",
"c c #E0E0DF",
"v c #E4E4E4",
"b c #ECECEC",
"n c #F3F3F3",
"m c #FFFFFF",
/* pixels */
"mmmmmmmmmmmmmmmmmmmmmmmmmmmmmmmmmmmmmmmmmmmmmmmmmmmmmmmmmmmmmmmm",
"mmmmmmmmmmmmmmmmmmmmmmmmmmmmmmmmmmmmmmmmmmmmmmmmmmmmmmmmmmmmmmmm",
"mmmmmmmmmmmmmmmmmmmmmmmmmmmmmmmmmmmmmmmmmmmmmmmmmmmmmmmmmmmmmmmm",
"mmmmmmmmmmmmmmmmmmmmmmmmmmmmmmmmmmmmmmmmmmmmmmmmmmmmmmmmmmmmmmmm",
"mmmmmmmmmmmmmmmmmmmmmmmmmmmmmmmmmmmmmmmmmmmmmmmmmmmmmmmmmmmmmmmm",
"mmmmmmmmmmmmmmmmmmmmmmmmmmmmmmmmmmmmmmmmmmmmmmmmmmmmmmmmmmmmmmmm",
"mmmmmmmmmmmmmmmmmmmmmmmmmmmmmmbvvvvvnmmmmmmmmmmmmmmmmmmmmmmmmmmm",
"mmmmmmmmmmmmmmmmmmmmmmmmmmnbxjsuuyuafkvnmmmmmmmmmmmmmmmmmmmmmmmm",
"mmmmmmmmmmmmmmmmmmmmmmmmmnht61>-*==-,39pzmmmmmmmmmmmmmmmmmmmmmmm",
"mmmmmmmmmmmmmmmmmmmmmmmnjy6-@        o%10dvmmmmmmmmmmmmmmmmmmmmm",
"mmmmmmmmmmmmmmmmmmmmmmnje-o            X#2uvmmmmmmmmmmmmmmmmmmmm",
"mmmmmmmmmmmmmmmmmmmmmmk8%        o       @>yvmmmmmmmmmmmmmmmmmmm",
"mmmmmmmmmmmmmmmmmmmmmvt&     o@%*-&$o     o2snmmmmmmmmmmmmmmmmmm",
"mmmmmmmmmmmmmmmmmmmmmd<    @>6wtyyyr73&o   @6kmmmmmmmmmmmmmmmmmm",
"mmmmmmmmmmmmmmmmmmmmv9#   #4ikbnbnnbvf0;o   *unmmmmmmmmmmmmmmmmm",
"mmmmmmmmmmmmmmmmmmmmf1   @6hvmmmmmmmmncu>o  o6xmmmmmmmmmmmmmmmmm",
"mmmmmmmmmmmmmmmmmmmny&   1dnmmmmmmmmmmmxr%   -fnmmmmmmmmmmmmmmmm",
"mmmmmmmmmmmmmmmmmmmb9o  #ebmmmmmmmmmmmmmj4   %ynmmmmmmmmmmmmmmmm",
"mmmmmmmmmmmmmmmmmmmb4   -inmmmmmmmmmmmmmbr@  @7vmmmmmmmmmmmmmmmm",
"mmmmmmmmmmmmmmmmmmmv2   1fmmmmmmmmmmmmmmma*  o3xmmmmmmmmmmmmmmmm",
"mmmmmmmmmmmmmmmmmmmx2   2fmmmmmmmmmmmmmmmh4%%%4vmmmmmmmmmmmmmmmm",
"mmmmmmmmmmmmmmmmmmmv3   ;smmmmmmmmmmmmmmmxiew0ubmmmmmmmmmmmmmmmm",
"mmmmmmmmmmmmmmmmmmmb4   %tbmmmmmmmmmmmmmmmbbvbbmmmmmmmmmmmmmmmmm",
"mmmmmmmmmmmmmmmmmmmn9@  o3hnmmmmmmmmmmmmmmmmmmmmmmmmmmmmmmmmmmmm",
"mmmmmmmmmmmmmmmmmmmnu*   $7dvmmmmmmmmmmmmmmmmmmmmmmmmmmmmmmmmmmm",
"mmmmmmmmmmmmmmmmmmmmj4o   #4uhxbmmmmmmmmmmmmmmmmmmmmmmmmmmmmmmmm",
"mmmmmmmmmmmmmmmmmmmmbt&    +%2eskvnnnmmmmmmmmmmmmmmmmmmmmmmmmmmm",
"mmmmmmmmmmmmmmmmmmmmmj6@     @&>49ufxnmmmmmmmmmmmmmmmmmmmmmmmmmm",
"mmmmmmmmmmmmmmmmmmmmmnd4@        %>40udknmmmmmmmmmmmmmmmmmmmmmmm",
"mmmmmmmmmmmmmmmmmmmmmmns4%o        o@&3rdxnmmmmmmmmmmmmmmmmmmmmm",
"mmmmmmmmmmmmmmmmmmmmmmmbh0-@o         @#:7fbmmmmmmmmmmmmmmmmmmmm",
"mmmmmmmmmmmmmmmmmmmmmmmmnki01#X         .#3uvmmmmmmmmmmmmmmmmmmm",
"mmmmmmmmmmmmmmmmmmmmmmmmmmnkae4<*@        o,uvmmmmmmmmmmmmmmmmmm",
"mmmmmmmmmmmmmmmmmmmmmmmmmmmmnbkar4-%#o     o,snmmmmmmmmmmmmmmmmm",
"mmmmmmmmmmmmmmmmmmmmmmmmmmmmmmmbvkfy7>#X    O4jmmmmmmmmmmmmmmmmm",
"mmmmmmmmmmmmmmmmmmmmmmmmmmmmmmmmmmnvhar2#    %tbmmmmmmmmmmmmmmmm",
"mmmmmmmmmmmmmmmmmmmmmmmmmmmmmmmmmmmmmmvs7&   o4kmmmmmmmmmmmmmmmm",
"mmmmmmmmmmmmmmmmmmmnbbbnmmmmmmmmmmmmmmmnk9#   -fnmmmmmmmmmmmmmmm",
"mmmmmmmmmmmmmmmmmmvduuugbmmmmmmmmmmmmmmmng4   #ybmmmmmmmmmmmmmmm",
"mmmmmmmmmmmmmmmmmmk7,><rxmmmmmmmmmmmmmmmmbt@  #9vmmmmmmmmmmmmmmm",
"mmmmmmmmmmmmmmmmmmk<  o3hmmmmmmmmmmmmmmmmmi%  o6cmmmmmmmmmmmmmmm",
"mmmmmmmmmmmmmmmmmmx2   -immmmmmmmmmmmmmmmmd*  O5xmmmmmmmmmmmmmmm",
"mmmmmmmmmmmmmmmmmmv5.  #tnmmmmmmmmmmmmmmmms*  @5xmmmmmmmmmmmmmmm",
"mmmmmmmmmmmmmmmmmmbq@   6xmmmmmmmmmmmmmmmmi#  @7vmmmmmmmmmmmmmmm",
"mmmmmmmmmmmmmmmmmmnu*   >dnmmmmmmmmmmmmmmbro  #wvmmmmmmmmmmmmmmm",
"mmmmmmmmmmmmmmmmmmmj2   @7xmmmmmmmmmmmmmmf2o  %inmmmmmmmmmmmmmmm",
"mmmmmmmmmmmmmmmmmmmv9@   *tcmmmmmmmmmmmmxr#   <jmmmmmmmmmmmmmmmm",
"mmmmmmmmmmmmmmmmmmmna-   X:tjnmmmmmmmmnly-   @7vmmmmmmmmmmmmmmmm",
"mmmmmmmmmmmmmmmmmmmmx7@    *9flvbnnbvxhr-o   -anmmmmmmmmmmmmmmmm",
"mmmmmmmmmmmmmmmmmmmmnd1    o#>6tiddsu91%o   #9xmmmmmmmmmmmmmmmmm",
"mmmmmmmmmmmmmmmmmmmmmvt-      #-<222>%o    +2fnmmmmmmmmmmmmmmmmm",
"mmmmmmmmmmmmmmmmmmmmmmkw*o                o1inmmmmmmmmmmmmmmmmmm",
"mmmmmmmmmmmmmmmmmmmmmmmkr-@              @1ibmmmmmmmmmmmmmmmmmmm",
"mmmmmmmmmmmmmmmmmmmmmmmnxi6%oXX     X X+-9fvmmmmmmmmmmmmmmmmmmmm",
"mmmmmmmmmmmmmmmmmmmmmmmmmbfy82>&####%:29yjnmmmmmmmmmmmmmmmmmmmmm",
"mmmmmmmmmmmmmmmmmmmmmmmmmmmbzdyr97770ydxnmmmmmmmmmmmmmmmmmmmmmmm",
"mmmmmmmmmmmmmmmmmmmmmmmmmmmmmnbvvvvvvbnmmmmmmmmmmmmmmmmmmmmmmmmm",
"mmmmmmmmmmmmmmmmmmmmmmmmmmmmmmmmmmmmmmmmmmmmmmmmmmmmmmmmmmmmmmmm",
"mmmmmmmmmmmmmmmmmmmmmmmmmmmmmmmmmmmmmmmmmmmmmmmmmmmmmmmmmmmmmmmm",
"mmmmmmmmmmmmmmmmmmmmmmmmmmmmmmmmmmmmmmmmmmmmmmmmmmmmmmmmmmmmmmmm",
"mmmmmmmmmmmmmmmmmmmmmmmmmmmmmmmmmmmmmmmmmmmmmmmmmmmmmmmmmmmmmmmm",
"mmmmmmmmmmmmmmmmmmmmmmmmmmmmmmmmmmmmmmmmmmmmmmmmmmmmmmmmmmmmmmmm",
"mmmmmmmmmmmmmmmmmmmmmmmmmmmmmmmmmmmmmmmmmmmmmmmmmmmmmmmmmmmmmmmm",
"mmmmmmmmmmmmmmmmmmmmmmmmmmmmmmmmmmmmmmmmmmmmmmmmmmmmmmmmmmmmmmmm"
};
