/* XPM */
static char *result[] = {
/* columns rows colors chars-per-pixel */
"64 64 47 1 ",
"  c #010101",
". c #080707",
"X c #080807",
"o c #0C0C0C",
"O c #100F10",
"+ c #131313",
"@ c #181717",
"# c #171718",
"$ c #1C1C1B",
"% c #232323",
"& c #2B2B2B",
"* c #343434",
"= c #3C3C3C",
"- c #3F4040",
"; c #434343",
": c #4B4B4B",
"> c #545454",
", c #5C5C5C",
"< c #636363",
"1 c #6C6C6C",
"2 c #747474",
"3 c #777878",
"4 c #7B7C7C",
"5 c #848484",
"6 c #888787",
"7 c #8B8B8B",
"8 c #908F8F",
"9 c #949494",
"0 c #9C9C9C",
"q c #A3A3A3",
"w c #ABABAB",
"e c #B0B0AF",
"r c #B4B4B4",
"t c #BCBCBC",
"y c #C4C4C4",
"u c #CCCCCB",
"i c #D4D4D4",
"p c #D7D7D8",
"a c gainsboro",
"s c #E0E0DF",
"d c #E3E3E3",
"f c #E8E8E7",
"g c #EBECEC",
"h c #EFEFF0",
"j c #F3F3F3",
"k c #F7F7F8",
"l c #FFFFFF",
/* pixels */
"llllllllllllllllllllllllllllllllllllllllllllllllllllllllllllllll",
"llllllllllllllllllllllllllllllllllllllllllllllllllllllllllllllll",
"llllllllllllllllllllllllllllllllllllllllllllllllllllllllllllllll",
"llllllllllllllllllllllllllllllllllllllllllllllllllllllllllllllll",
"llllllllllllllllllllllllllllllllllllllllllllllllllllllllllllllll",
"llllllllllllllllllllllllllllllllllllllllllllllllllllllllllllllll",
"llllllllllllllllllllllllllllllllllllllllllllllllllllllllllllllll",
"llllllllllllllllllllllllllllllllllllllllllllllllllllllllllllllll",
"llllllllllllllllllllllllllllllllllllllllllllllllllllllllllllllll",
"llllllllllllllllllllllllllllllllllllllllllllllllllllllllllllllll",
"llllllllljyq00wgllllllllllllljuq0000rjlllllllllllljt000rjlllllll",
"lllllllllg6%OO*ylllllllllllllg4$OOOO;ullllllllllllp>#O$,alllllll",
"lllllllllj0$  $qjllllllllllllp:.    %wjlllllllllllu*  +2dlllllll",
"lllllllllly&  #6glllllllllllly*     #7glllllllllljw%  $9jlllllll",
"llllllllllp:. o<dllllllllllljq$     o<dllllllllllg6@  &tklllllll",
"lllllllllld1o .;illllllllllld3# .+.  =illlllllllld1o .;illllllll",
"llllllllllg9$  &yllllllllllla>X +;#  &tllllllllllp;. o1dllllllll",
"llllllllllkt&  $0jlllllllllly*  &5=. $9jllllllllly&  @7jllllllll",
"llllllllllli=. #4gllllllllljq$  =r<o O1dlllllllljq%  &rkllllllll",
"llllllllllld,o X<alllllllllg4# o,u7# .:pllllllllg6#  =illlllllll",
"lllllllllllg6#  =illlllllllp>X #4dw&  &ylllllllld<o X,alllllllll",
"llllllllllljw%  &tkllllllllu*  %wju*  %qjlllllllp;. #5glllllllll",
"llllllllllllu*  $0jllllllljw%  *ulp>X #5gllllllly&  %wjlllllllll",
"lllllllllllla>X #5glllllllg4# X,ald3+ X>alllllljw%  *yllllllgrqq",
"llllllllllllg4+ X,dllllllla,X #4glj0$  *ullllllg5# X>alllllli=++",
"llllllllllllj0$  -illllllli*  %qjllt&  &rkllllld<o +3dlllllli&  ",
"llllllllllllly&  &tkllllljw&  *ullli=. $9gllllli;  $0jlllllli&  ",
"lllllllllllllp:. $qjlllllg5# .>allld<o o<dllllly&  &tllllllli&  ",
"llllllllllllld1+ +4fllllld,o +4glllg7#  =illlljq$  ;illllllli&  ",
"lllllllllllllj9$ X,alllllu=  %qjllljw%  &tklllg5$ o1dllllllli&  ",
"lllllllllllllkt&  =ullllkr%  &yllllly*  $9gllld<o $9hllllllli&  ",
"lllllllllllllli-  &rklllg7# .:allllla>. O3dllli;  &rkllllllli&  ",
"lllllllllllllld<o $9jllls<o +4fllllld2+ X>allkt&  =illlllllli;$$",
"llllllllllllllg6$ #4dllli=  $0jlllllj0$  *ulljq$ o,dlllllllljyrr",
"lllllllllllllljr% X>allkr&  *tkllllllt&  %rklg4# #5gllllllllllll",
"lllllllllllllllu*  *illg6# X:pllllllli=  $0jls,X %wjllllllllllll",
"llllllllllllllla>o &rlls<o +2dllllllld<X +3dli=  *ulllllllllllll",
"lllllllllllllllg4@ $9hli-  $0jlllllllg6# X>plt& X>alllllllllllll",
"llllllllllllllljq% +2dkt&  &ykllllllljw%  *ij0$ #4glllllllllllll",
"llllllllllllllllu& .>ah8# .:illlllllllu&  &td4# $qjlllllllllllll",
"llllllllllllllllp:X *ud<+ O1dllllllllla:X $qi,X &yllllllllllllll",
"lllllllllllllllld1o &eu;  $9gllllllllld2+ #6t= X:pllllllllllllll",
"llllllllllllllllj0$ $9w&  &tllllllllllj9$ o<0& +1dllllllllllllll",
"llllllllllllllllkt& +<4$ X;illllllllllkt& X=3$ $9jllllllllllllll",
"llllllllllllllllli;.X*:+ o1dllllllllllli=  %:+ &tkllllllllllllll",
"llllllllllllllllld<o o$. #7jllllllllllld,o X$. =illlllllllllllll",
"lllllllllllllllllg7#  .  &tklllllllllllg6#    o<dlllllllllllllll",
"lllllllllllllllllkr%    .=illlllllllllljw$    $6glllllllllllllll",
"llllllllllllllllllu=    o<dlllllllllllllu&    %wjlllllllllllllll",
"lllllllllllllllllla,X   $7glllllllllllllp:.   *ullllllllllllllll",
"llllllllllllllllllg6&$##=rkllllllllllllld4&@$%<dllllllllllllllll",
"lllllllllllllllllljy64438dlllllllllllllljt5444ejllllllllllllllll",
"llllllllllllllllllljdaaadkllllllllllllllljaaadgkllllllllllllllll",
"llllllllllllllllllllllllllllllllllllllllllllllllllllllllllllllll",
"llllllllllllllllllllllllllllllllllllllllllllllllllllllllllllllll",
"llllllllllllllllllllllllllllllllllllllllllllllllllllllllllllllll",
"llllllllllllllllllllllllllllllllllllllllllllllllllllllllllllllll",
"llllllllllllllllllllllllllllllllllllllllllllllllllllllllllllllll",
"llllllllllllllllllllllllllllllllllllllllllllllllllllllllllllllll",
"llllllllllllllllllllllllllllllllllllllllllllllllllllllllllllllll",
"llllllllllllllllllllllllllllllllllllllllllllllllllllllllllllllll",
"llllllllllllllllllllllllllllllllllllllllllllllllllllllllllllllll",
"llllllllllllllllllllllllllllllllllllllllllllllllllllllllllllllll",
"llllllllllllllllllllllllllllllllllllllllllllllllllllllllllllllll"
};
