/* XPM */
static char *b1d4f378954647d3b2f4e0cda3b76d432xUoHOu7YoBZiQCA[] = {
/* columns rows colors chars-per-pixel */
"64 64 168 2 ",
"   c #6396D7",
".  c #6598D7",
"X  c #6697D8",
"o  c #6997D9",
"O  c #6699D8",
"+  c #6C9CD9",
"@  c #739EDB",
"#  c #7B9EDD",
"$  c #74A1DB",
"%  c #7BA3DD",
"&  c #7DA8DE",
"*  c #829EDF",
"=  c #82A4DF",
"-  c #82A9DF",
";  c #86A4E0",
":  c #89A5E0",
">  c #86ABE0",
",  c #8BABE1",
"<  c #92AEE2",
"1  c #99AEE5",
"2  c #8EB1E2",
"3  c #94B4E3",
"4  c #9AB6E5",
"5  c #97B8E4",
"6  c #9CBBE5",
"7  c #A0B5E6",
"8  c #A2BDE7",
"9  c #A5B7E8",
"0  c #A6BEE8",
"q  c #AABEE9",
"w  c #B1BFEB",
"e  c #A3C1E7",
"r  c #A6C2E8",
"t  c #ACC3E9",
"y  c #AFC8EA",
"u  c #B2C5EB",
"i  c #B9C7EC",
"p  c #B4CAEB",
"a  c #B8CEEC",
"s  c #BACEED",
"d  c #BBCFED",
"f  c #BACFED",
"g  c #B9CDED",
"h  c #BCCFED",
"j  c #BDCFEE",
"k  c #BFCEEE",
"l  c #BACDED",
"z  c #B9D0ED",
"x  c #BAD0ED",
"c  c #BBD1ED",
"v  c #BCD0ED",
"b  c #BDD1ED",
"n  c #BDD0ED",
"m  c #BCD0EE",
"M  c #BDD0EE",
"N  c #BDD1EE",
"B  c #BFD0EE",
"V  c #BED2EE",
"C  c #BFD3EE",
"Z  c #BDD1EE",
"A  c #C3CEEF",
"S  c #C2CEEF",
"D  c #C2D1EF",
"F  c #C1D3EE",
"G  c #C0D3EF",
"H  c #C2D3EF",
"J  c #C6D3EF",
"K  c #C2D4EF",
"L  c #C3D5EF",
"P  c #C3D5EF",
"I  c #C4D5EF",
"U  c #C4D4EF",
"Y  c #C2D3EF",
"T  c #C5CFF0",
"R  c #C5D3F0",
"E  c #C6D3F0",
"W  c #C7D3F0",
"Q  c #C6D0F0",
"!  c #C5D4F0",
"~  c #C6D5F0",
"^  c #C5D6F0",
"/  c #C6D6F0",
"(  c #C7D6F0",
")  c #C6D7F0",
"_  c #C7D7F0",
"`  c #C5D5F0",
"'  c #C9D4F0",
"]  c #CAD5F1",
"[  c #C8D7F0",
"{  c #C9D7F0",
"}  c #C9D6F1",
"|  c #C9D7F1",
" . c #CBD6F1",
".. c #CAD7F1",
"X. c #CBD7F1",
"o. c #CED6F2",
"O. c #CFD6F2",
"+. c #CFD7F2",
"@. c #CAD6F1",
"#. c #C7D8F0",
"$. c #C6D8F0",
"%. c #C8D8F0",
"&. c #C8D8F1",
"*. c #C9D8F1",
"=. c #C8D9F1",
"-. c #C9D9F1",
";. c #CBD8F1",
":. c #CBD9F1",
">. c #CCD9F1",
",. c #CCDAF1",
"<. c #CCDBF1",
"1. c #CDD8F2",
"2. c #CDD9F2",
"3. c #CFD8F2",
"4. c #CFD9F2",
"5. c #CEDAF2",
"6. c #CEDBF2",
"7. c #CFDBF2",
"8. c #CFDCF2",
"9. c #CEDDF2",
"0. c #CFDDF2",
"q. c #CCDAF1",
"w. c #D3D5F2",
"e. c #D2D6F2",
"r. c #D3D6F3",
"t. c #D2D7F3",
"y. c #D3D7F3",
"u. c #D5D7F3",
"i. c #D6D7F3",
"p. c #D3D6F3",
"a. c #D0D8F2",
"s. c #D1D8F2",
"d. c #D2D8F3",
"f. c #D3D9F3",
"g. c #D1DAF3",
"h. c #D1DBF3",
"j. c #D5D8F3",
"k. c #D5D9F3",
"l. c #D7D9F3",
"z. c #D0DCF2",
"x. c #D0DDF3",
"c. c #D6D9F4",
"v. c #D5DAF4",
"b. c #D5DEF4",
"n. c #D6DDF4",
"m. c #D2DDF3",
"M. c #D8D9F4",
"N. c #D9DBF4",
"B. c #DADAF4",
"V. c #DBDBF5",
"C. c #D8DCF4",
"Z. c #D8DDF4",
"A. c #DBDDF5",
"S. c #DBDEF5",
"D. c #DDDFF5",
"F. c #DADDF5",
"G. c #D5E1F4",
"H. c #DBE0F5",
"J. c #DCE0F5",
"K. c #DEE1F6",
"L. c #DBE4F5",
"P. c #DFE9F6",
"I. c #E1E6F7",
"U. c #E2E9F7",
"Y. c #E5EBF8",
"T. c #EAEEF9",
"R. c #EDF2FA",
"E. c #F2F5FB",
/* pixels */
"v v x g p u t r 8 6 5 4 3 3 2 2 3 4 6 r p x F #.*.h.c.M.S.b.*.) I [ 0.x.0.0.<.#.#.) ) ) *.x.n.K.K.H.b.2.) g y r 8 6 6 6 6 r y g ",
"v G v g u t t r e 6 4 4 4 5 5 5 6 6 e t g b ^ #.*.z.e.h.e.[ F v g G ) *.*.*.#.F b ^ ) #.2.z.M.V.K.S.b.0.) g p t r e e 8 r t p g ",
"v v v g u y t r e 6 6 4 5 6 5 6 6 8 e t p x ^ ) [ [ [ ' Q G p u u p v F ^ ^ b v x v V $.2.z.M.M.M.S.j.2.[ R g u t r r q r t y g ",
"x x g p y t r e e 6 6 4 6 6 6 6 6 e t y g x b ) ' Q Q R h p u t t u g g g v x g p g N $. .e.i.M.M.j.j.2.[ ) g p y 0 0 r r t y p ",
"g a p y t e e e e e 6 5 5 6 r r t y y y p g v b T T h g g p y q q u i u g g p p y p c ^ [ e.e.j.j.u.e.*.[ Q N p q q q t t t y p ",
"a p y r e e e 6 e e e 6 6 r y z x g g p p p g x h g g p p u u q w u u u u u t y y y c $.[  .z.e.u. .' T ) F v u q q q w u u p l ",
"x a t e 6 e e e e e 6 e 6 t c $.*.) ^ v g p g z g g p y y y u u u q t t t t q q y y g R [ 2.*.e.w.] T S ^ v g t t q u u p l F F ",
"F x y e 6 6 e e 6 6 e r y g ^ q.2.0.#.) i g g g g p y p p p p u u q q r 8 r 0 0 t y g R Q [ [  . .] T S x g p t r t y p F F [ I ",
"$.C p t 8 6 8 0 r r r t p c ^ 6.G.0.9.^ g g p p p y u p p p p p w q 7 8 6 e e r y p a B F I *.2.h.2.[ ^ ^ g u q r t u i G { >.0.",
"9.$.c g y t t u p p p p z V ^ q.9.0.<.^ S v z g u p p p p p p u u q 7 6 4 4 8 r y p a a v F *.G.H.G.6.6.) h u q r t y g I 2.0.0.",
"0.$.) v x x g g V C V V V ^ ! ! F #.#.b v v x x a a g p p u u u y 0 6 5 1 4 8 t y u y y p v 9.G.L.L.n.6.' R p t t u g F >.x.x.x.",
"<.<.*.) ) #.#.#.=.=.<.<.<.q.! N x x x a v ^ v x x p p p u u u u t 7 4 5 2 < 4 r y y t t p F 0.G.P.L.n.t.' G G p y u l { >.x.G.x.",
"0.2.*.2.2.2.x.0.9.<.6.G.x.=.V N g a p a x x g g g p p u y t q q 0 7 4 5 2 - < 7 0 0 q q p G 0.G.L.P.G.*.' D G h g g I [ 4.b.x.z.",
"2.*.2.z.t.h.x.x.9.x.G.x.<.=.N l g g a z x g p a p t t y y t q 0 8 6 5 5 4 3 < 2 5 4 6 r p F 2.x.9.G.x.*.D G G R G G ) [ >.z.4.>.",
"4.4.2.x.6.h.x.9.x.G.x.6.q.^ N g g h x x x x a p t 7 0 r t r 0 6 4 5 5 5 5 5 - - - 3 4 8 y l I *.2.2.2.S h S A A A D I { >.0.0.>.",
"z.x.x.b.G.x.x.G.x.x.G.q.^ N l g g g x a a a p y r 6 6 6 7 4 4 3 3 3 3 3 - - - & & - 5 6 q p h h G S S g g S A Q ' [ -.2.>.>.z.x.",
"b.G.G.x.G.0.0.0.0.0.<.<.^ x z g p p u p u u t t 8 5 5 4 3 3 , , > , 2 > > $ $ + $ & 2 4 q t u u u u u w i k Q 2.2.x.0.9.G.0.G.G.",
"H.Z.b.x.x.G.9.0.<.<.#.F b x g p u u u u u y t q e 6 5 4 3 , , = = % > > % + + + @ % > 4 7 9 q t y t w w i i T *.G.L.L.P.P.P.L.G.",
"I.Z.Z.G.0.0.-.-.*.#.F v x g p u u u u u t t t t 0 6 4 3 , ; % % % % $ $ $ + O O + $ & 2 1 1 4 6 e r w u i i G 2.L.P.Y.Y.Y.Y.Y.U.",
"Y.I.Z.z.-.-.-.#.*.F v g x g p y u t y y t y u t q 8 6 3 , % % @ @ + + + + O O + @ $ % > , , 3 5 6 8 0 t u i I x.P.Y.R.R.R.E.E.T.",
"T.U.G.0.#.#.L L F v g a g g u u p y y t t t y t 0 6 6 , = % $ + O O O   O O O O + @ $ & > > > 2 6 4 7 t u S [ x.P.U.R.R.E.E.E.E.",
"T.U.G.0.#.C b b a p p p u u u g p g p y y q r 0 6 6 3 > = $ @ + O       . . O O + + + % % & ; , < 1 9 t p G *.x.L.P.R.R.E.E.E.E.",
"T.I.H.-.G l g a p r r t w u i l j c g x p t 8 6 3 < : = # @ + +         O O O O O + $ % % ; > > , 1 0 y p S I n.L.P.Y.T.R.E.E.E.",
"Y.L.b.>.G g a p t 0 q r q w w i N ^ ^ N g y 6 3 ; ; = # % @ + O O O O + + + + O + @ $ % & % & > , 1 r u g S [ z.L.P.Y.Y.T.R.E.T.",
"Y.L.G.2.D i p p t 0 r r r u i S R ^ ^ $.x y 6 , * * % % $ + + + O + + @ @ @ % $ $ % % % = % % > : 3 r y g S [ z.G.P.L.P.P.T.R.R.",
"Y.K.H.x.[ g u t r r r u y a l A R ) $.^ g r 6 , = = % % $ + + + + + @ $ # # = & % # # # % % % ; , 6 8 y u S D [ G.G.L.L.P.U.Y.Y.",
"U.L.G.4.I h u t t t t u g B I I ) ) ^ x p t 6 3 ; = % % $ $ $ % % % % % % * - < , * # # % % ; , 3 4 6 8 u p F 0.G.G.L.L.H.U.Y.Y.",
"P.H.G.>.I l a p y u p i G #.0.0.2.[ ) x u q 6 4 , % % % % $ & & > - - - , , 3 5 4 : # % @ = > , 3 , < 6 r p B 0.G.G.G.G.L.L.P.P.",
"G.G.G.-.I G v x p u g S { x.G.x.x.2.) j u q 8 4 , = = % = - 2 2 2 3 2 2 3 4 6 6 5 2 = % % = : : : , 3 4 8 t z -.x.G.G.L.L.L.L.L.",
"0.x.x.>.-.I L F v h G D >.x.G.H.n.h.#.^ g u 0 4 < , = - , 3 5 e 6 6 6 6 6 6 8 8 6 4 , = = : = = ; , 5 6 8 y g I 2.j.b.H.L.L.G.0.",
"0.0.x.x.0.0.-.#.I G G D >.b.H.H.S.n.6.#.j u r 6 4 3 - 3 5 6 e r y r r e r e r e 6 6 , , : , , = = < 4 8 r y g ) 2.b.n.S.H.L.x.0.",
"-.0.G.G.x.x.0.-.{ I D { -.x.G.J.K.G.x.*.R p t 8 6 4 4 4 4 e t y p z p p y t t r 6 6 4 2 < < < , , 5 6 r y a G ) 2.z.n.H.K.H.x.*.",
") *.6.6.0.0.2.#.) ) ) #.*.x.n.K.J.A.b.0.{ l y r e 6 6 6 8 r y g x x g g p t t r 6 6 5 5 5 3 3 2 3 5 6 t p x ^ #.*.z.c.M.S.n.2.^ ",
"g N ) #.*.#.#.^ G F ) #.2.h.n.A.J.A.b.x.{ l p t e e e 8 0 r p g V V v g p u t t r 6 6 5 5 5 5 5 5 6 e y g v ^ )  . .z.h.2.[ G g ",
"u p c R ^ V V v h v Q *.2.z.c.M.A.B.j.2.{ F g y t e 0 0 r t y g v V v g u y t 8 e 6 6 5 4 5 5 6 6 6 e t p v R ^ [ [  .Q Q v g u ",
"t u g v N v g p p g v )  .e.i.c.l.l.j.2.{ F l u t t r q t t y p x x x p y t r r e 6 6 5 6 6 6 6 8 r r y g x v ^ ' ' ' T x g u t ",
"t u u i g g u p p y x F X.O.t.c.u.u.z. .{ I B p t q q q t t u p z p p y t r e e e e 6 5 5 e e r t y t y g p h R D D h x g p y q ",
"t u u u u u t u y p c F X.2.O.t.u. . .A I F B y t q q q u p p g g p y r 6 e 8 8 e r 6 6 6 e y g x z g g p p g N S i g p p y u t ",
"w u q t t t q t y p x F [ X.*.O.w. .A A J B a t t r t i g g v v x p t e 6 e e e r 6 e 6 e y x ^ #.) V c l p l g g g p y u p u t ",
"t q q q e r 8 r r y g ^ ' [ [ [ ]  .A S l a y t t t u p v F #.#.$.z p r 6 6 e 6 6 e e r t g ^ 2.h.6.q.^ l p p l a p p u p p u u ",
"u q 7 8 6 6 r r y p g N R ^ #.0.j.e.*.) v x u q 0 t t g R ) 0.0.#.c p y 8 8 8 0 0 r r y p x ) 2.G.G.*.^ h g a a p y u p p p p u ",
"t 0 9 4 4 6 e r y p g g x V $.0.G.b.x.2.) v u q t y u h ) 2.x.x.<.$.c p y r r u p p p u x b ) *.<.0.*.R h g a g p y p p p p p p ",
"t 0 4 5 3 5 6 t y p p u p v <.L.P.G.G.x.Q R p y q u p G [ x.n.x.<.#.$.c x x g g b F v v ^ ^ ) ) L $.#.R G v v x a a p p p u u u ",
"q 0 4 4 < < 6 r u t t t u R 6.L.P.L.G.2.' Q h p u u h [ 2.x.x.x.<.<.<.#.#.#.-.-.<.-.-.2.6.*.Q v z z v x v G v g a a p p u u u u ",
"r 6 4 3 3 < < 7 e r r q p ^ 0.G.L.L.n.O.Q R v v g h G [ z.x.x.x.6.*.2.2.2.z.x.0.0.<.0.0.0.$.R g g p p p x x g p g p p u y t q q ",
"8 6 6 5 3 < - < 3 5 6 r y V <.x.G.L.x.' Q ^ N R G I ) [ >.z.x.2.2.2. .z.z.e.x.x.0.0.G.0.x.$.N g z z z z x z a a p t t y y t q q ",
"4 4 5 5 5 3 - - > 2 4 0 y g #.*.<.0.' T h h R T D D I { 1.2.*.2.2.2.z.x.u.z.h.x.0.G.G.0.#.^ x g g x c z x z a p t 7 0 0 t 0 7 6 ",
"2 3 3 3 2 - - - & > 4 6 q p g h R v T i g h T T A { *.>.z.2.0.0.x.x.x.b.x.n.x.x.G.0.0.9.#.N x g g g z z a p p y r 6 6 6 6 6 4 5 ",
"- - < - - $ $ $ $ & 3 4 0 t u u p i u w i S Q *.z.x.G.G.G.0.G.G.x.G.x.G.G.x.G.6.0.0.<.*.I v g g g g u u u u t t 8 5 4 4 3 3 , , ",
"- - - - % + o o @ % - 5 9 9 q r r t w w u i G 2.G.L.L.L.P.P.L.H.H.H.n.G.x.x.<.0.*.<.$.^ b x g p u u p u u y t q e 6 4 3 3 , = = ",
"% & & $ $ + . o + $ & 2 < 4 4 7 e r q u i S T 2.P.U.U.U.Y.Y.Y.Y.I.H.G.x.x.9.*.*.#.#.^ v v g g u u u u p t t t t r 6 6 3 < = = % ",
"@ + + + + . . + @ $ % - , , 3 4 6 0 r r w i Q 0.L.Y.R.R.R.R.R.R.Y.I.G.0.9.$.#.#.#.^ v x x g p u q t u y t t y y q 6 6 3 , % % @ ",
"o o   . O O O + + + $ % = - , 2 4 4 0 q u S *.x.L.U.R.R.R.E.E.E.T.I.H.0.#.#.^ #.V x g g g p u u u u y y t t y t r 6 6 , = # @ + ",
".       O   O O + + $ $ = - - , < 1 9 t g G *.x.L.U.R.R.E.E.E.E.T.U.G.0.^ v x v z p p p u u u g g g p p t t r e 6 5 3 : = # @ + ",
"      . . .     + + $ % % & - , < 1 0 y p S [ x.P.P.Y.R.R.E.E.R.T.U.G.*.R g g g y t r t w u i h h h h g p t e 6 3 2 : = % @ + + ",
". . o o + + + + + $ % % % % - - : 3 0 u p S [ z.G.P.P.Y.R.R.R.R.Y.L.G.*.R g g p t 8 r 0 t w u i G G I G g t 6 2 : ; = # % @ + O ",
"O + + @ @ # $ $ $ % # % % % ; > < 3 r p g S [ z.G.P.U.L.Y.T.R.R.Y.K.G.2.G i p u r q r t t u i i F L #.F z t 6 < ; * & % @ @ + O ",
"+ @ @ @ # # & & % % # # % % % ; - 4 q t u h Q 2.G.L.L.H.L.U.Y.T.Y.L.H.x.I h u t r r t t t a g S I #.#.#.z t 6 - ; % & % @ @ + + ",
"% $ $ % % * , 2 2 * # # % % & : 2 5 6 q u p v *.G.G.G.G.H.U.U.Y.U.L.G.x.I h u t q t t u g B F I #.) I F a r 6 3 ; # % $ $ $ $ % ",
"> > > ; , , 3 5 4 > # # $ & , , 2 < < 4 r p F 0.G.G.H.G.L.L.U.P.L.K.G.2.) v g u y u u l F -.0.0.2.*.D g u q 7 4 , ; % % $ % % > ",
"3 3 2 2 3 5 6 6 6 , = % % ; ; > < < < 4 8 t x *.x.n.G.L.L.L.L.G.G.G.x.*.) v v h p p g G #.0.x.G.x.2.) h u q 7 4 , ; % & & > 2 2 ",
"6 6 6 6 6 6 6 e 6 3 , = ; ; ; ; = < 3 4 e y g ) 2.b.n.H.L.L.G.0.6.6.G.<.[ ) ^ R v h S D *.G.G.H.n.x.[ R g u 0 6 3 : ; > , 3 5 6 ",
"y r r r r r r r 8 5 3 , , : ; = - 3 4 6 r y v ) 2.z.n.K.L.H.G.2.0.x.G.0.0.<.*.#.I G D I 2.x.H.H.S.G.2.#.v p r 6 4 , , 2 5 6 r r ",
"p p p p y t t r 6 6 3 2 < 3 , , - 5 6 r y a v *.2.x.j.S.H.H.x.0.2.0.G.x.G.0.0.*.{ { D I -.x.G.H.K.H.x.*.G g r 8 6 6 5 5 6 6 y y "
};
